<?xml version="1.0" encoding="utf-8"?>
<!-- Generator: Adobe Illustrator 16.0.0, SVG Export Plug-In . SVG Version: 6.00 Build 0)  -->
<!DOCTYPE svg PUBLIC "-//W3C//DTD SVG 1.1//EN" "http://www.w3.org/Graphics/SVG/1.1/DTD/svg11.dtd">
<svg version="1.1" id="Layer_1" xmlns="http://www.w3.org/2000/svg" xmlns:xlink="http://www.w3.org/1999/xlink" x="0px" y="0px"
	 width="82px" height="82px" viewBox="0 0 82 82" enable-background="new 0 0 82 82" xml:space="preserve">
<rect y="-0.001" fill="none" width="82" height="82.002"/>
<path fill-rule="evenodd" clip-rule="evenodd" fill="#B3C213" d="M43.365,40.057c1.889-2.956,4.49-7.682,6.261-10.282
	c0.354-0.473,0.944-1.771,1.534-1.89c0.354,0.473,1.775,2.956,2.129,3.664c0.944,1.534,5.789,9.806,6.261,10.868
	c-0.472,0.473-3.188,3.191-3.545,3.31c-0.827-0.708-1.653-1.652-2.598-2.36c-1.538-1.303-1.656-0.713-4.018,2.125
	c-0.354,0.472-0.708,0.826-1.181,1.298l-2.129,2.72c-0.354-0.118-4.962-4.608-5.198-5.198L43.365,40.057z M16.894,75.977
	c0.472-0.236,3.313-3.31,3.899-3.9c0.236-0.236,0.358-0.236,0.594-0.472l10.869-10.869c0.354,0.114,2.598,2.479,3.191,3.069
	l1.771,1.775c0.472,0.472,0.826,0.826,1.298,1.298c1.185,1.063,1.657,1.889,2.838,1.889l5.434,0.118l7.092,7.092
	c0.236-0.236,1.534-1.535,1.652-1.775c-0.236-0.354-1.889-2.007-2.361-2.479c-0.826-0.827-1.656-1.653-2.482-2.483
	c-3.31-3.306-2.598-2.833-6.733-2.833c-2.247,0-2.129,0.235-3.073-0.591c-2.129-2.247-4.49-4.726-6.737-6.736
	c-1.889-1.89-2.007-1.89-3.899,0.117l-8.386,8.272c-2.011,2.125-4.73,4.607-6.619,6.732C15.477,74.441,16.543,75.622,16.894,75.977
	L16.894,75.977z M1.298,74.441c0.354,0.354,1.421,1.063,2.007,1.299l2.837-4.49c0.949-1.534,1.893-2.955,2.837-4.49
	c0.944-1.416,1.889-2.955,2.833-4.489c2.247-3.428,4.844-7.563,7.091-11.109c0.944-1.534,6.855-10.869,7.205-11.104
	c0.712,0.59,4.849,6.261,5.084,6.851c0.709-0.118,1.299-0.826,1.889-1.181c-0.117-0.708-5.906-8.861-6.736-9.216
	c-0.236-0.118-0.708-0.118-0.945,0.118l-8.744,13.47c-0.236,0.473-0.586,0.944-0.944,1.535c-0.236,0.472-0.59,0.948-0.944,1.538
	L8.98,62.271c-1.303,2.007-2.483,4.018-3.782,6.024C4.372,69.476,1.771,73.611,1.298,74.441L1.298,74.441z M1.063,80.702h79.993
	v-1.771H1.063V80.702z M16.657,13.117L16.657,13.117 M11.223,12.645c-1.298,0.114-2.243,0.944-2.601,2.007
	c-0.35,1.771,0.24,2.837-1.53,2.951c-1.539,0.122-2.247,0.713-2.956,1.539c-1.303,1.774-0.594,5.316,2.007,5.788
	c1.893,0.358,16.779,0.358,17.724-0.113c2.956-1.303,2.956-5.675,0-6.974c-0.826-0.354-1.18-0.118-2.007-0.354
	c-1.066-0.235-1.066-1.652-2.247-2.247c-1.535-0.708-2.247,0.595-3.191,0.945C14.178,17.017,15.241,12.173,11.223,12.645
	L11.223,12.645z M57.425,1.418h-2.364c-0.236,0-2.834,0.235-3.546,0.354c-3.188,0.591-6.024,1.894-8.744,3.546
	c-3.31,2.011-6.024,4.844-8.153,8.271c-4.136,6.855-4.722,15.477-1.299,23.04c0.24,0.59,1.063,2.247,1.421,2.719
	c0.708-0.122,1.417-0.708,2.007-1.066c-0.236-1.889-3.664-4.722-3.073-13.465c0.472-8.744,5.91-16.193,13.824-19.381
	c2.129-0.826,4.254-1.421,6.736-1.535c2.838-0.122,4.963,0,7.563,0.591c8.39,2.243,14.415,8.739,16.304,17.011
	c0.472,2.13,0.472,5.438,0.235,7.8c-0.235,2.365-0.944,4.494-1.771,6.501c-1.181,2.837-4.372,6.614-6.973,8.508
	c-0.236,0.235-0.354,0.354-0.591,0.59c0.236,0.354,0.949,1.535,1.303,1.771c1.299-0.472,4.372-3.663,5.198-4.726
	c1.299-1.535,2.716-4.014,3.664-6.261c2.479-6.619,2.479-13.824-0.831-20.443c-2.36-4.371-5.315-7.677-9.569-10.278
	C63.096,1.418,58.134,1.653,57.425,1.418L57.425,1.418z M32.61,53.172l0.236,0.236c0.354,0.236,1.298,0.944,1.771,0.944
	c0.948-1.417,4.136-7.091,4.844-7.682c0.358,0.236,1.303,1.185,1.657,1.539c0.59,0.59,1.063,1.063,1.652,1.534
	c2.838,2.838,3.073,3.9,5.202,1.181l4.254-5.08l2.125,1.889c1.181,1.066,1.535,1.421,2.483,0.713
	c1.181-0.826,3.659-3.664,4.014-3.782c0.24,0.354,0.83,1.417,1.185,1.889l5.553,9.811c0.708,1.299,1.416,2.479,2.247,3.896
	c2.242,3.782,4.489,7.8,6.614,11.581l2.247,3.782c0.709-0.236,1.535-0.708,2.007-1.181c-0.118-0.477-1.181-2.011-1.416-2.602
	l-4.372-7.563c-2.011-3.428-3.899-6.852-5.793-10.279c-3.899-6.5-7.795-13.823-11.813-20.202c-1.421-2.483-2.956-5.202-4.372-7.563
	c-0.944-1.539-1.657-3.428-2.956-1.539c-1.416,2.247-4.018,6.383-5.315,8.626C43.365,35.33,32.729,52.7,32.61,53.172L32.61,53.172z"
	/>
</svg>
