<?xml version="1.0" encoding="utf-8"?>
<!-- Generator: Adobe Illustrator 16.0.0, SVG Export Plug-In . SVG Version: 6.00 Build 0)  -->
<!DOCTYPE svg PUBLIC "-//W3C//DTD SVG 1.1//EN" "http://www.w3.org/Graphics/SVG/1.1/DTD/svg11.dtd">
<svg version="1.1" id="Layer_1" xmlns="http://www.w3.org/2000/svg" xmlns:xlink="http://www.w3.org/1999/xlink" x="0px" y="0px"
	 width="82px" height="82px" viewBox="0 0 82 82" enable-background="new 0 0 82 82" xml:space="preserve">
<rect y="-0.001" fill="none" width="82" height="82.002"/>
<path fill-rule="evenodd" clip-rule="evenodd" fill="#9724FC" d="M53.88,57.308c0.472,0.118,2.837,0.944,3.191,1.181
	c-0.354,0.473-0.831,0.944-1.303,1.299c-1.181,0.826-3.069,2.365-4.372,2.719L53.88,57.308z M12.049,63.333
	c-0.472-0.473-1.063-1.299-1.535-2.007C0.354,45.845,3.305,25.761,16.657,13.825c2.247-2.125,5.438-4.254,8.271-5.553
	c8.98-4.372,15.835-3.428,16.779-4.021c1.303-0.473,2.011-3.306-1.652-3.188C31.666,1.3,24.815,3.9,19.022,7.679
	c-2.365,1.538-3.074,2.247-4.962,3.785c-0.354,0.351-0.472,0.473-0.826,0.822c-0.59,0.595-1.185,1.066-1.771,1.775
	c-2.601,3.305-3.313,3.781-5.674,8.035C0.236,32.021-0.594,45.019,3.9,56.005c1.889,4.608,4.844,8.626,4.962,8.98
	c-1.185-0.236-3.545-1.299-4.612-0.826c-0.945,0.472-1.889,2.601,0.712,3.31c8.979,2.719,8.744,2.955,10.278-2.72
	c0.354-0.944,1.181-3.541,1.181-4.372c0.122-1.889-2.243-2.479-3.069-1.181C12.757,60.142,12.521,62.271,12.049,63.333
	L12.049,63.333z M71.014,14.533c1.298,0,3.781,0.591,4.607-0.236c1.181-1.066,0.591-2.833-0.944-3.073
	c-1.539-0.118-3.31-0.118-4.962-0.235c-1.539-0.118-3.31-0.354-4.254,0.59c-0.713,0.944-0.595,2.955-0.713,4.494
	c-0.118,0.822-0.354,4.136-0.235,4.844c0.354,1.299,2.482,1.535,3.073,0.351c0.472-0.709,0.472-3.542,0.59-4.608
	c0.354,0.122,2.72,3.191,3.073,3.786c1.181,1.889,1.535,2.479,2.598,4.485c5.557,10.873,4.612,23.87-0.944,34.031
	c-0.944,1.652-1.889,3.073-2.834,4.372c-0.354,0.354-0.594,0.59-0.83,1.063c-0.354,0.354-0.59,0.472-0.826,0.826l-1.652,1.774
	C55.65,78.101,43.247,77.156,41.944,77.747c-1.181,0.59-2.007,3.545,2.011,3.191c8.271-0.591,15.477-3.664,20.675-7.682
	c3.546-2.597,4.608-3.663,7.328-6.851c1.889-2.129,4.254-5.911,5.434-8.744c3.191-7.327,4.608-15.245,2.956-23.988
	c-1.535-7.913-4.372-12.758-8.98-18.668L71.014,14.533z M25.996,58.488c0.114,0,0.114,0,0.236-0.118l1.417-0.472
	c0.472-0.236,1.063-0.473,1.539-0.591l2.479,5.198C30.131,62.034,26.585,59.433,25.996,58.488L25.996,58.488z M43.011,55.415
	c1.299,0,7.087,0.59,8.031,1.185c-0.354,1.535-1.771,4.136-2.597,5.553c-1.066,2.125-0.826,1.889-1.893,2.125
	c-0.944,0.235-2.716,0.59-3.664,0.472L43.011,55.415z M32.021,56.6c1.18-0.712,6.496-1.185,8.153-1.185v9.334
	c-1.299,0-2.483-0.236-3.664-0.472c-1.181-0.236-0.708,0.118-2.007-2.125C33.909,61.09,32.256,57.78,32.021,56.6L32.021,56.6z
	 M31.075,53.881c-0.594-1.653-1.889-8.272-1.538-10.161h10.519v8.98C36.746,52.936,34.267,53.29,31.075,53.881L31.075,53.881z
	 M54.706,54.589c0.354-1.771,0.826-3.31,1.181-5.198c0.236-1.771,0.236-3.899,0.59-5.671h7.445c0.236,1.771-0.944,5.671-1.534,7.205
	c-0.591,1.421-2.247,4.608-3.191,5.316L54.706,54.589z M43.011,43.72h10.515c0.354,2.243-0.944,8.032-1.534,10.161
	c-1.421-0.236-2.838-0.591-4.372-0.827c-1.303-0.118-3.546-0.118-4.608-0.472V43.72z M27.176,49.509
	c0.354,1.771,0.827,3.31,1.181,5.08l-4.372,1.652c-1.063-0.826-2.597-3.777-3.305-5.435c-0.712-1.889-1.539-4.844-1.539-6.969
	c0.118,0,7.205-0.236,7.445,0C26.704,44.192,27.058,48.564,27.176,49.509L27.176,49.509z M42.889,32.021
	c1.657-0.117,3.31-0.235,4.849-0.472c1.416-0.118,2.951-0.59,4.254-0.708c0.826,3.541,1.534,6.143,1.652,10.16H42.889V32.021z
	 M29.423,41.001c0.114-4.727,0.822-6.261,1.652-10.16c1.417,0.235,2.834,0.59,4.372,0.826c1.535,0.118,3.069,0.236,4.727,0.354v8.98
	H29.423z M19.141,41.001c0.118-2.598,0.708-5.08,1.539-7.205c1.294-3.191,2.715-4.494,3.069-5.438l4.608,1.889
	c-0.354,1.657-0.826,3.191-1.181,5.084c-0.236,1.653-0.472,3.782-0.59,5.553C25.874,41.119,20.443,40.883,19.141,41.001
	L19.141,41.001z M59.196,28.476c2.482,2.601,4.372,7.681,4.726,12.525l-7.445-0.118c-0.114-4.962-0.944-6.615-1.771-10.751
	L59.196,28.476z M43.011,19.968c0.944-0.118,2.598,0.24,3.542,0.477c1.303,0.235,0.708,0,2.011,2.125
	c0.708,1.298,2.007,4.018,2.479,5.552c-1.416,0.473-6.614,1.303-8.153,1.066L43.011,19.968z M32.021,28.239
	c0.235-1.534,1.889-4.372,2.482-5.67c1.181-2.125,0.944-1.89,2.007-2.125c1.181-0.236,2.365-0.477,3.664-0.477v9.334
	C36.982,29.065,34.976,28.712,32.021,28.239L32.021,28.239z M53.88,27.413l-2.483-5.198c1.185,0.472,5.32,3.073,5.675,4.018
	L53.88,27.413z M25.996,26.232c0.826-0.83,1.535-1.539,2.597-2.247c0.708-0.472,2.125-1.416,3.073-1.771
	c-0.236,0.59-0.948,2.007-1.299,2.715c-0.236,0.595-0.944,1.775-1.066,2.483L25.996,26.232z M41.59,68.531
	c14.415,0.117,26.232-11.813,26.114-26.232c0-14.531-11.699-26.112-26.114-26.112c-14.532-0.114-26.231,11.698-26.231,26.23
	C15.359,56.836,27.058,68.531,41.59,68.531L41.59,68.531z"/>
</svg>
