<?xml version="1.0" encoding="utf-8"?>
<!-- Generator: Adobe Illustrator 16.0.0, SVG Export Plug-In . SVG Version: 6.00 Build 0)  -->
<!DOCTYPE svg PUBLIC "-//W3C//DTD SVG 1.1//EN" "http://www.w3.org/Graphics/SVG/1.1/DTD/svg11.dtd">
<svg version="1.1" id="Layer_1" xmlns="http://www.w3.org/2000/svg" xmlns:xlink="http://www.w3.org/1999/xlink" x="0px" y="0px"
	 width="82px" height="82px" viewBox="0 0 82 82" enable-background="new 0 0 82 82" xml:space="preserve">
<rect y="-0.001" fill="none" width="82" height="82.002"/>
<path fill-rule="evenodd" clip-rule="evenodd" fill="#0DBF8A" d="M39.348,20.794c4.136-0.35,8.625,0.708,12.049,2.838
	c1.657,0.944,3.664,2.601,4.727,4.018c0.948,1.181,1.893,2.247,2.601,3.663c1.181,2.597,1.889,4.49,2.247,7.678
	c1.063,11.345-7.917,20.915-18.2,21.623c-4.367,0.358-8.626-0.59-12.167-2.833c-5.438-3.31-8.866-8.862-9.452-15.363
	c-0.472-4.136,0.708-8.857,2.833-12.171c1.889-2.833,4.608-5.67,7.682-7.205C34.145,21.86,36.156,21.03,39.348,20.794L39.348,20.794
	z M40.646,11.464c-2.007,0.586-1.185,3.542,0.827,3.069C43.365,14.062,42.652,10.988,40.646,11.464L40.646,11.464z M24.579,62.624
	c-2.129,0.473-1.302,3.428,0.708,3.073c0.708-0.117,1.298-0.948,1.181-1.893C26.231,63.097,25.523,62.389,24.579,62.624
	L24.579,62.624z M52.817,6.734c-0.713,0.235-0.826,0.594-1.657,1.302c-0.354,0.351-2.007,1.89-2.125,2.243
	c-0.472,1.299,0.591,2.479,1.89,2.129c0.59-0.122,1.18-0.944,1.538-1.303c0.354-0.354,2.007-1.889,2.125-2.242
	c0.236-0.354,0.236-0.827,0.118-1.185C54.47,7.092,53.644,6.498,52.817,6.734L52.817,6.734z M28.593,6.616
	c-0.827,0.235-1.417,0.826-1.299,1.771c0.118,0.712,0.826,1.303,1.299,1.656c0.472,0.591,0.944,0.945,1.416,1.535
	c0.473,0.358,0.949,1.181,1.894,0.944C32.729,12.286,33.2,11.7,33.2,10.87c-0.118-0.827-2.125-2.598-2.719-3.306
	C30.009,7.206,29.537,6.498,28.593,6.616L28.593,6.616z M40.646,1.063c-1.534,0.118-1.185,2.951-1.185,4.372
	c0,0.708,0,2.007,0,2.715c0.358,1.657,2.72,1.657,3.073,0.122c0.118-0.472,0.118-4.729,0.118-5.437c0-0.474,0-0.828-0.354-1.183
	c-0.118-0.235-0.354-0.59-0.826-0.59C41.236,1.063,40.882,1.063,40.646,1.063L40.646,1.063z M32.492,51.516
	c0.944-1.535,1.652-2.598,3.31-3.542c3.188-2.129,7.209-2.129,10.515,0c1.539,0.944,2.247,2.007,3.191,3.542
	c-2.247,1.656-4.844,2.955-8.508,2.955C37.572,54.471,35.09,53.29,32.492,51.516L32.492,51.516z M40.174,35.566
	c1.534-0.477,3.073,0.354,3.781,1.652c0.591,1.299,0.473,3.428-0.118,4.372c-0.354,0.708-1.066,1.299-2.011,1.535
	c-3.545,0.83-4.962-3.428-3.659-6.025C38.639,36.274,39.348,35.921,40.174,35.566L40.174,35.566z M30.245,49.154L30.245,49.154
	c0,0,0,0-0.114,0c0-0.118,0-0.118,0-0.118l0,0c-0.122-0.118-0.122-0.118-0.122-0.236c-0.113,0-0.235-0.235-0.35-0.354
	c-2.837-4.018-3.074-9.692-0.831-14.179c1.067-1.893,2.837-4.021,4.73-5.08c4.845-2.955,10.16-2.955,15.005,0
	c1.181,0.822,1.771,1.531,2.715,2.361c0.473,0.354,1.539,2.011,1.893,2.833c2.243,4.258,2.125,9.22-0.354,13.474
	c-0.236,0.236-0.354,0.473-0.473,0.709c-0.118,0.118-0.118,0.235-0.24,0.354l-0.354,0.236c-0.118-0.354-0.826-1.181-1.063-1.534
	c-1.653-2.012-4.372-3.074-4.727-3.428c0.236-0.591,0.591-0.944,0.944-1.539c0.236-0.59,0.473-1.299,0.473-2.007
	c1.185-9.216-9.57-10.872-12.289-4.372c-0.473,1.181-0.587,2.951-0.473,4.372c0.236,1.652,0.83,2.479,1.539,3.546
	c-0.354,0.354-1.303,0.708-1.775,0.944C32.965,45.963,30.84,47.733,30.245,49.154L30.245,49.154z M24.221,41.945
	c0.358,5.08,3.073,9.216,5.553,11.345c0.235,0.118,0.235,0.236,0.594,0.473c3.542,2.715,6.969,4.136,11.932,3.781
	c8.861-0.59,16.307-8.508,15.599-18.082c-0.236-2.361-0.944-4.722-1.893-6.614c-0.944-1.653-2.361-3.546-3.66-4.727
	c-3.663-2.955-7.563-4.607-12.525-4.254c-4.254,0.354-8.744,2.479-11.345,5.557c-0.708,0.822-1.181,1.417-1.771,2.479
	C24.815,34.977,23.866,38.168,24.221,41.945L24.221,41.945z M66.877,34.618c1.063-0.236,2.243,0.122,2.838,0.712
	c0.708,0.709,1.181,1.181,1.299,2.479c0.59,6.619-6.501,5.91-6.855,1.774C63.922,36.983,64.748,35.212,66.877,34.618L66.877,34.618z
	 M13.706,34.618c1.771-0.473,4.018,0.948,4.136,3.191c0.236,1.774,0,3.191-1.42,4.254c-0.35,0.235-0.708,0.472-1.181,0.59
	c-2.247,0.473-4.018-1.181-4.254-3.069C10.869,37.219,11.341,35.33,13.706,34.618L13.706,34.618z M7.091,80.82
	c0.236,0,0.472,0.118,0.708,0.118c0.35,0,0.586-0.118,0.822-0.118c1.657,0.236,3.313-1.417,3.9-2.007l8.98-9.098
	c0.472-0.477,1.066-1.185,0.594-2.129c-0.358-0.591-1.181-1.063-2.011-0.709c-0.708,0.354-8.272,8.153-9.098,8.98
	c-0.826,0.826-2.007,2.601-4.018,1.889c-1.653-0.708-2.243-2.479-1.535-3.899c0.472-0.827,4.962-5.199,5.906-6.144l10.519-10.515
	c0.473-0.354,1.181-1.066,1.417-1.42c0.354,0.118,1.417,1.303,2.247,2.011l1.062,0.944c0.473,0.354,0.708,0.59,1.181,0.944
	c11.459,8.035,26.94,4.136,33.559-7.8c0.944-1.889,1.771-3.777,2.243-6.024c1.652-0.118,4.018,0,5.67,0
	c2.129,0,3.191-0.118,4.967,0.826c1.18,0.591,2.242,1.657,2.833,2.838c0.944,1.652,0.826,2.837,0.826,4.844
	c-1.771,0-14.532-0.118-15.123,0.118c-0.944,0.236-1.534,1.534-0.708,2.483c0.826,0.826,2.007,0.472,3.31,0.472
	c2.597,0,5.08,0,7.678,0c8.153,0,8.035,0.826,8.035-3.428c0-1.298,0-2.364-0.236-3.545c-0.944-3.9-3.899-6.615-7.799-7.563
	c1.066-1.181,1.302-3.306,1.185-5.198c-0.358-4.962-5.438-7.56-9.339-5.671c-0.826,0.473-1.298,0.827-1.889,1.299
	c-0.236-0.354-0.472-1.299-0.708-1.652c-0.944-2.243-1.299-2.72-2.602-4.49l-1.534-2.011c-0.236-0.236-0.354-0.35-0.591-0.59
	c-0.708-0.827-1.538-1.535-2.482-2.243c-8.036-6.383-19.971-6.383-28.121,0c-0.708,0.59-1.889,1.652-2.483,2.243
	c-0.236,0.354-0.236,0.354-0.59,0.59c-0.944,0.944-2.715,3.664-3.423,4.966c-0.236,0.587-1.185,2.833-1.42,3.188
	c-1.181-1.181-2.837-1.889-4.49-1.889c-3.545,0-6.383,2.601-6.619,6.261c-0.114,1.893,0.122,4.018,1.066,5.198
	c-1.539,0.358-2.837,0.948-3.9,1.774c-1.066,0.827-1.889,1.653-2.719,2.956c-0.708,1.298-1.18,2.715-1.298,4.371
	c-0.118,0.827,0,1.89,0,2.716c0,3.31,0.59,2.719,5.552,2.719c0.949,0,1.893,0,2.837,0s1.771,0.236,2.361-0.354
	c0.472-0.595,0.594-1.421,0.122-2.129c-0.472-0.591-1.302-0.591-2.247-0.591c-1.889,0-3.664,0-5.553,0c0-2.007,0-3.191,0.827-4.844
	c0.59-1.181,1.771-2.247,2.951-2.838c1.657-0.944,2.837-0.826,4.844-0.826c1.775,0,4.022-0.118,5.675,0
	c0.472,1.775,2.011,6.146,3.069,7.209c-0.236,0.473-5.667,5.789-6.497,6.615l-3.305,3.31c-1.066,1.181-2.129,2.125-3.191,3.31
	c-1.066,1.063-2.129,2.125-3.31,3.188c-0.948,0.948-2.243,2.011-2.837,3.663c-0.708,2.247,0,4.962,1.417,6.146
	c0.358,0.354,0.472,0.473,0.948,0.827C5.198,80.466,6.261,80.938,7.091,80.82L7.091,80.82z"/>
</svg>
