<?xml version="1.0" encoding="utf-8"?>
<!-- Generator: Adobe Illustrator 16.0.0, SVG Export Plug-In . SVG Version: 6.00 Build 0)  -->
<!DOCTYPE svg PUBLIC "-//W3C//DTD SVG 1.1//EN" "http://www.w3.org/Graphics/SVG/1.1/DTD/svg11.dtd">
<svg version="1.1" id="Layer_1" xmlns="http://www.w3.org/2000/svg" xmlns:xlink="http://www.w3.org/1999/xlink" x="0px" y="0px"
	 width="82px" height="82px" viewBox="0 0 82 82" enable-background="new 0 0 82 82" xml:space="preserve">
<rect fill="none" width="82" height="82"/>
<path fill="#FF9800" d="M55.65,17.251h12.644v0.118c-0.708,1.063-1.181,1.771-1.299,1.771h-3.31c0.473,0.59,0.709,1.302,0.944,2.011
	h3.546c0.118,0,0.118,0,0.118,0.118c-0.826,1.18-1.299,1.771-1.299,1.771H64.63c0,0.59-0.354,1.417-0.826,2.247
	c-0.708,0.944-1.416,1.535-2.125,1.771c-1.185,0.59-2.364,0.826-3.545,0.826v0.118c0,0,2.601,3.073,7.681,8.98h-3.309
	c-4.963-5.789-7.563-8.626-7.563-8.626v-1.771l0.118-0.118c0.354,0.118,0.944,0.118,1.538,0.118c2.716,0,4.49-0.944,5.198-2.719
	c0.118-0.236,0.118-0.59,0.118-0.826h-7.563l0,0c0.826-1.298,1.181-1.889,1.299-1.889h5.911l0,0
	c-0.354-0.708-0.949-1.303-2.012-1.657c-0.708-0.236-1.298-0.354-1.889-0.354h-3.31l0,0C55.178,17.96,55.532,17.251,55.65,17.251
	L55.65,17.251z"/>
<path fill-rule="evenodd" clip-rule="evenodd" fill="#FF9800" d="M12.405,46.671h6.263v20.206h-6.263V46.671z M48.091,64.276h11.695
	c1.185,0,6.737-0.708,8.39-0.944c3.31-0.473,5.198-0.473,7.8,0.944c0.236,1.421-1.181,1.538-3.428,2.483
	c-2.243,0.944-11.936,5.198-12.88,5.198H48.445c-1.066,0-10.991-3.31-12.88-3.9c-2.127-0.708-4.372-1.298-6.381-2.007
	c-2.245-0.708-4.253-1.656-6.735-1.774V47.973h13.116c4.016,0,5.435,2.834,8.862,5.671c0.826,0.708,1.652,1.534,2.479,2.361
	c0.949,0.83,1.657,1.538,2.483,2.365c1.417,1.18,0.354,0.944,3.899,0.944c0.944,0,4.136-0.118,4.845,0
	c1.181,0.354,1.416,2.482-0.826,2.482h-8.744c-0.708,0-2.011-1.42-2.602-2.011c-0.708-0.708-1.652-1.534-2.479-2.243
	c-0.595-0.59-3.192-3.191-3.902-3.31c-0.708-0.117-1.299,0.354-1.417,1.063c-0.118,1.181,3.189,3.664,4.488,4.963l2.483,2.247
	C45.844,63.096,46.788,64.276,48.091,64.276L48.091,64.276z M8.624,44.191H1.063v3.781h7.561v17.606H1.063v3.777h7.561v1.303H22.45
	v-3.782c1.771,0,15.833,4.608,18.55,5.553c1.534,0.473,2.955,0.826,4.608,1.417c2.247,0.712,2.837,0.594,5.316,0.594
	c2.011,0,4.018,0,6.028,0c2.361,0,3.188,0.236,5.316-0.712c2.837-1.181,5.553-2.361,8.508-3.542
	c1.298-0.472,2.715-1.066,4.136-1.656c1.771-0.826,2.833-1.063,3.546-2.716c1.298-3.663-3.428-5.202-6.266-5.32
	c-3.073-0.235-8.861,1.303-10.75,1.067c0-1.539,0.118-3.428-2.247-4.49c-1.299-0.473-4.845-0.236-6.615-0.236
	c-1.539,0-1.421-0.236-2.365-1.185l-5.316-4.962c-2.837-2.598-4.49-4.962-8.625-5.198c-2.363-0.118-12.88,0.118-13.824-0.118v-2.483
	H8.624V44.191z"/>
<path fill-rule="evenodd" clip-rule="evenodd" fill="#FF9800" d="M74.087,13.116c-0.949,0.354-2.129,1.889-2.838,2.597
	c-2.129,2.011-0.118,2.955,0.826,2.601c0.354-0.118,2.365-2.243,2.838-2.601C76.802,13.824,75.031,12.762,74.087,13.116
	L74.087,13.116z"/>
<path fill-rule="evenodd" clip-rule="evenodd" fill="#FF9800" d="M76.094,28.475c2.479,0,4.962,0.354,4.962-1.299
	c0-1.771-2.597-1.298-5.08-1.298C74.087,25.877,73.847,28.475,76.094,28.475L76.094,28.475z"/>
<path fill-rule="evenodd" clip-rule="evenodd" fill="#FF9800" d="M50.925,36.156c-0.591,0.236-2.243,2.011-2.834,2.483
	c-0.354,0.354-0.948,0.826-0.83,1.652c0.236,0.708,0.948,1.181,1.657,0.945c0.708-0.118,2.242-1.889,2.833-2.479
	C53.762,36.746,51.869,35.802,50.925,36.156L50.925,36.156z"/>
<path fill-rule="evenodd" clip-rule="evenodd" fill="#FF9800" d="M48.327,12.998c-0.708,0.236-1.303,0.827-0.948,1.771
	c0.118,0.354,0.948,1.066,1.303,1.42c0.472,0.472,0.826,0.827,1.298,1.299c0.354,0.354,0.827,1.063,1.771,0.826
	c0.476-0.236,0.948-0.826,0.712-1.653c-0.118-0.59-0.712-1.066-1.066-1.42C50.334,14.178,49.271,12.762,48.327,12.998L48.327,12.998
	z"/>
<path fill-rule="evenodd" clip-rule="evenodd" fill="#FF9800" d="M71.131,36.156c-0.59,0.236-1.18,0.827-0.59,1.653l2.597,2.719
	c1.775,1.889,3.074,0,2.365-1.181l-2.601-2.719C72.43,36.274,71.958,35.565,71.131,36.156L71.131,36.156z"/>
<path fill-rule="evenodd" clip-rule="evenodd" fill="#FF9800" d="M43.602,28.475h3.305c2.247,0,2.247-2.597,0-2.597h-3.423
	C41.472,25.877,41.354,28.475,43.602,28.475L43.602,28.475z"/>
<path fill-rule="evenodd" clip-rule="evenodd" fill="#FF9800" d="M60.259,41.708v3.309c0,2.243,2.482,2.243,2.482,0.118V41.59
	C62.741,39.583,60.259,39.583,60.259,41.708L60.259,41.708z"/>
<path fill-rule="evenodd" clip-rule="evenodd" fill="#FF9800" d="M60.259,9.216v3.428c0,2.007,2.482,2.125,2.482,0V9.216
	C62.741,6.973,60.259,7.091,60.259,9.216L60.259,9.216z"/>
</svg>
