<?xml version="1.0" encoding="utf-8"?>
<!-- Generator: Adobe Illustrator 16.0.0, SVG Export Plug-In . SVG Version: 6.00 Build 0)  -->
<!DOCTYPE svg PUBLIC "-//W3C//DTD SVG 1.1//EN" "http://www.w3.org/Graphics/SVG/1.1/DTD/svg11.dtd">
<svg version="1.1" id="Layer_1" xmlns="http://www.w3.org/2000/svg" xmlns:xlink="http://www.w3.org/1999/xlink" x="0px" y="0px"
	 width="82px" height="82px" viewBox="0 0 82 82" enable-background="new 0 0 82 82" xml:space="preserve">
<rect y="-0.001" fill="none" width="82" height="82.002"/>
<path fill-rule="evenodd" clip-rule="evenodd" fill="#FC2D57" d="M48.563,57.426c1.299,1.063,8.39,17.605,9.806,20.558
	c2.008,4.371,7.563,3.781,9.217,0c0.944-2.361,0.118-3.66-0.709-5.789l-6.854-15.831c-0.708-1.774-1.417-3.428-2.243-5.32
	c-1.063-2.597-4.726-17.012-3.428-18.668l8.39-6.614c1.417-1.185,2.72-2.129,4.254-3.31c5.907-4.727,1.063-8.508-1.298-8.508
	c-2.247-0.118-3.9,1.771-5.085,2.715L47.855,26.705c-1.894,1.652-0.949,3.899,1.889,1.652c2.837-2.361,5.552-4.49,8.508-6.732
	c2.837-2.247,7.681-7.328,8.979-4.494c0.944,2.247-1.771,3.663-2.955,4.494c-1.417,1.062-2.833,2.242-4.254,3.305
	c-10.515,8.153-9.452,5.553-6.379,19.734c1.063,5.08,1.771,7.088,3.781,11.341c1.535,3.546,3.069,7.21,4.608,10.755
	c0.826,2.243,4.49,8.862,3.188,10.869c-0.944,1.421-3.659,1.656-4.844-0.354l-7.088-15.713c-0.59-1.42-1.774-4.254-2.364-5.198
	c-1.181-1.538-3.428-2.011-5.316-0.594c-1.417,1.066-2.72,2.365-4.136,3.545c-8.862,6.974-5.553,7.327-14.769,5.671
	c-4.966-0.826-11.581-0.944-9.452-5.198c1.181-2.598,9.807,0.118,12.522,0.472c2.719,0.354,3.663-1.298,5.08-2.479
	c3.899-3.073,6.619-4.727,6.146-8.862c-0.236-1.893-0.944-4.489-1.417-6.383c-1.302-6.143-0.944-6.379-7.209-7.681
	c-8.271-1.653-5.906-0.587-12.998-9.803c-3.191-4.021-0.59-2.955-1.653-5.202c-2.365-0.59-3.427,2.365-0.83,5.675
	c1.539,2.007,6.737,9.33,8.394,10.16c1.181,0.472,5.788,1.299,7.323,1.652c4.136,0.709,3.781,0.473,4.608,4.608
	c2.242,10.046,2.837,8.39-2.243,12.998c-2.72,2.246-3.191,3.309-6.025,2.837c-4.848-0.826-11.699-3.428-13.828,1.181
	c-1.181,2.719,0.236,5.552,2.129,6.501c1.535,0.826,5.553,1.298,7.441,1.652c6.382,1.063,8.625,2.602,12.408-0.826
	c0.472-0.354,0.708-0.591,1.181-0.944C40.174,63.687,46.906,57.426,48.563,57.426L48.563,57.426z M46.435,21.389
	c-2.833,7.799-14.414,3.899-11.932-3.9c0.826-2.837,4.014-5.202,7.914-4.136C45.136,14.297,47.855,17.488,46.435,21.389
	L46.435,21.389z M38.639,11.342c-11.227,2.72-6.973,19.141,4.014,16.426c3.9-0.944,7.327-4.963,6.147-10.165
	C47.855,13.589,43.719,10.043,38.639,11.342L38.639,11.342z M18.668,3.665c7.917-2.838,11.813,9.094,4.136,11.813
	C15.004,18.197,10.633,6.38,18.668,3.665L18.668,3.665z M19.613,1.063C8.622,2.48,10.278,19.26,21.859,18.079
	C32.729,16.78,30.958-0.355,19.613,1.063L19.613,1.063z"/>
</svg>
