<?xml version="1.0" encoding="utf-8"?>
<!-- Generator: Adobe Illustrator 16.0.0, SVG Export Plug-In . SVG Version: 6.00 Build 0)  -->
<!DOCTYPE svg PUBLIC "-//W3C//DTD SVG 1.1//EN" "http://www.w3.org/Graphics/SVG/1.1/DTD/svg11.dtd">
<svg version="1.1" id="Layer_1" xmlns="http://www.w3.org/2000/svg" xmlns:xlink="http://www.w3.org/1999/xlink" x="0px" y="0px"
	 width="82px" height="82px" viewBox="0 0 82 82" enable-background="new 0 0 82 82" xml:space="preserve">
<rect y="-0.001" fill="none" width="82" height="82.002"/>
<path fill-rule="evenodd" clip-rule="evenodd" fill="#48AF4B" d="M51.396,63.805c1.421,0.236,2.483-0.236,2.955-1.299
	c0,0,0,0,0.118,0c0,0,0,0,0,0.118l0.118,0.354c0.118,0.236,0.118,0.354,0.236,0.59l2.601,8.154c-0.354-0.236-1.42-0.709-2.011-0.473
	c-0.59,0.236-0.708,1.063-1.181,1.417C54.116,72.549,51.396,64.396,51.396,63.805L51.396,63.805z M52.227,54.707
	c-2.601,2.837-7.563,0.944-7.563-2.955c0-4.132,5.08-5.907,7.681-2.952c0.591,0.591,0.944,1.535,1.063,2.361
	C53.644,52.582,53.171,53.763,52.227,54.707L52.227,54.707z M48.327,44.9c-1.893,0.354-3.31,0.944-4.49,2.479
	c-1.185,1.303-1.656,3.073-1.538,5.202c0.354,3.423,3.899,6.379,7.681,5.906c2.72-0.472,4.845-2.247,5.553-4.726
	c0.473-1.535,0.236-4.019-0.472-5.435C53.762,46.081,50.925,44.429,48.327,44.9L48.327,44.9z M60.971,18.315
	c0.354-0.713-0.236-1.535-0.948-1.535c-0.708-0.122-1.889,0-2.598,0H22.804c-0.831,0-1.417,0-1.775,0.822
	c-0.236,0.83,0.358,1.421,1.066,1.539c0.59,0.118,17.487,0,18.55,0h18.551C60.141,19.142,60.734,19.142,60.971,18.315L60.971,18.315
	z M11.699,30.959c0.236,1.298,1.535,1.062,2.833,1.062h53.407c0.591,0,2.602,0.236,2.365-1.302
	c-0.118-1.417-1.538-1.181-2.719-1.181H17.96c-0.708,0-5.08-0.114-5.553,0.236C11.935,29.896,11.699,30.368,11.699,30.959
	L11.699,30.959z M11.699,37.337c0.236,1.303,1.535,1.066,2.715,1.066H64.04c0.708,0,5.08,0.114,5.553-0.122
	c1.185-0.472,0.83-1.889,0-2.242c-0.354-0.118-1.417,0-1.889,0H17.96c-0.594,0-5.203-0.118-5.553,0.117
	C12.049,36.393,11.699,36.747,11.699,37.337L11.699,37.337z M11.813,24.576c0.122,1.298,1.539,1.063,2.719,1.063h53.407
	c0.591,0,1.299,0,1.775-0.236c0.354-0.236,0.708-0.586,0.59-1.181c-0.118-1.299-1.538-1.063-2.719-1.063c-1.299,0-2.602,0-3.9,0
	c-2.479,0-5.08,0-7.563,0H14.06c-0.59,0-1.303-0.118-1.653,0.118C12.049,23.514,11.699,23.985,11.813,24.576L11.813,24.576z
	 M45.608,69.594c-0.354,0-0.591-1.063-1.299-1.417c-0.591-0.236-1.299,0.236-2.011,0.472l1.893-5.552l0,0
	c0,0.118,0.708,0.708,1.417,0.708c0.944,0.236,1.18-0.118,1.889-0.236C46.906,65.58,46.316,67.587,45.608,69.594L45.608,69.594z
	 M41.118,46.317c0.944-0.354,2.365-0.473,3.073-1.063c0.708-0.591,1.299-1.889,1.771-2.483c0.709,0,2.129,0.948,3.073,0.948
	c1.063,0,2.598-1.066,3.191-0.948c1.181,2.129,1.299,2.602,3.188,3.073c0.354,0.118,1.303,0.236,1.657,0.473
	c0.118,1.538-0.473,2.011,0.118,3.545c0.235,0.473,0.59,0.827,0.826,1.063c0.354,0.473,0.59,0.827,0.944,1.181
	c-0.236,0.477-1.299,1.539-1.652,2.129c-0.591,1.063-0.236,2.483-0.236,3.664c-4.372,0.944-3.191,1.416-4.967,3.545
	c-2.479-0.948-2.597-1.302-4.607-0.594c-0.354,0.24-1.063,0.594-1.535,0.594c-0.472-0.708-1.063-1.893-1.771-2.482
	c-0.826-0.709-2.129-0.591-3.073-1.063c-0.118-2.838,0.708-2.483-0.944-4.608c-0.354-0.354-0.713-0.826-0.948-1.185
	c0.122-0.354,1.42-1.652,1.656-2.243C41.473,48.918,41,47.498,41.118,46.317L41.118,46.317z M43.125,42.535
	c0,0.236-0.236,0.713-0.473,0.831c-0.118,0-0.708,0.235-0.944,0.235c-0.354,0.118-0.944,0.236-1.298,0.354
	c-1.657,0.59-1.771,1.889-1.771,3.306c0.114,1.893,0.351,1.303-0.708,2.482c-0.24,0.354-0.595,0.709-0.712,1.063
	c-0.354,0.354-0.354,0.709-0.473,1.185c-3.546,0-7.087,0-10.637,0c-3.542,0-7.205,0-10.75,0c-0.472,0-0.827,0-1.299,0
	c-0.59,0-0.59-0.122-0.944-0.476l-3.31-3.306c-1.657-1.657-1.535-1.303-1.535-2.719v-26.94c0-0.59,0-0.708,0.35-1.063l4.73-4.729
	c0.354-0.351,0.236-0.236,0.944-0.236c17.015,0.122,33.794,0,53.053,0c0.708,0,1.063-0.114,1.299,0.122l3.663,3.664l0,0l0.118,0.113
	c1.063,1.181,1.299,0.944,1.299,1.894c0,1.063,0,2.129,0,3.073c0,8.149,0,16.543,0,24.574c0,1.063,0,0.826-1.181,1.893l-3.899,3.896
	c-0.236,0.354-0.709,0.239-1.181,0.239c-0.826,0-5.789,0.114-6.024-0.122c-0.118-0.117-0.118,0-0.118-0.117
	c-0.477-1.771-1.894-2.479-1.894-3.188c-0.117-0.236,0-0.831,0-1.066c0.236-2.361-0.117-3.069-2.479-3.778
	c-0.477-0.118-1.421-0.235-1.657-0.594c-0.118-0.118-0.235-0.473-0.354-0.591c-0.236-0.236-0.236-0.354-0.473-0.708
	c-1.416-2.129-2.479-1.652-4.372-0.944c-0.59,0.236-0.826,0.472-1.534,0.236c-1.303-0.591-3.31-1.657-4.608,0.235
	C43.837,41.591,43.247,42.417,43.125,42.535L43.125,42.535z M78.572,8.98v2.834V30.01v2.247v24.579H59.432
	c0-2.011-0.117-1.185,0.827-2.483c1.185,0,8.743,0.118,9.216,0c0.477-0.236,5.202-5.198,5.91-5.788
	c0.473-0.473,0.827-0.709,0.827-1.539c0-4.49-0.118-9.452,0-13.942v-2.837c0.117-4.014,0-8.386,0-12.521
	c0-1.181-0.473-1.416-1.535-2.483c-1.421-1.416-2.837-2.833-4.254-4.136c-0.236-0.354-0.708-0.826-1.066-0.944
	c-0.473-0.118-27.648,0-31.075,0c-6.144,0-8.744,0-14.769,0H14.06c-1.539,0-1.417-0.235-2.247,0.709l-4.722,4.726
	c-0.712,0.713-1.185,0.948-1.185,2.007v28.242c0,1.299-0.236,1.653,0.59,2.483c1.066,1.063,2.011,2.007,3.073,3.069
	c0.59,0.594,1.063,1.066,1.652,1.656c0.354,0.354,1.063,1.299,1.657,1.299c0.708,0.118,24.456,0,25.051,0
	c1.181,1.535,0.822,0.708,0.822,2.483c-5.906,0-11.813,0-17.602,0H3.542V7.679h22.096c7.445,0,9.453,0,17.846,0
	c11.577,0,23.512,0.122,35.089,0V8.98z M6.969,5.199c-5.435,0-5.907-0.472-5.907,2.129v7.913c0,1.653-0.118,20.089,0,21.27
	l0.708,0.118c-0.59,0.354-0.59,0.236-0.708,0.354c0,3.663,0,7.209,0,10.872c0,1.771,0,3.66,0,5.435c0,0.944-0.118,4.727,0.118,5.316
	c0.354,0.708,1.18,0.59,2.011,0.59c0.944,0,1.889,0,2.715,0c18.55,0,14.536,0,33.205,0.118c0.114,0,0.35,0.591,1.299,0.944
	c0.708,0.118,1.298,0.354,1.889,0.477c0,0.354-2.125,6.615-2.361,7.441c-0.477,1.539-1.299,2.955-0.236,3.663
	c0.944,0.591,2.716-0.826,3.782-0.944c0.118,0.236,1.298,2.361,1.534,2.598c0.473,0.354,1.181,0.472,1.653,0
	c0.354-0.354,0.472-0.826,0.59-1.417l2.129-6.261c0.118,0.118,0.118,0.236,0.236,0.473c0,0.118,0,0.236,0.118,0.472l2.247,6.97
	c0.354,0.83,0.708,2.482,1.18,2.837c1.417,1.181,2.243-1.299,3.191-2.602c0.709,0.236,1.535,0.595,2.125,0.831
	c0.944,0.354,1.771,0.354,2.125-0.473c0.236-0.712-0.354-1.774-0.472-2.365c-0.354-0.826-0.591-1.534-0.826-2.364
	c-0.236-0.709-0.591-1.535-0.709-2.243c-0.118-0.354-0.236-0.709-0.354-1.181l-1.535-4.49c0-0.236-0.24-0.83-0.24-1.066
	c0.831-0.354,1.775-0.236,2.602-1.299c0.59-0.118,1.656-0.118,2.365-0.118c10.632,0.118,6.614,0.118,16.893,0.118
	c1.421,0,2.72,0.236,2.72-1.534c0-16.543,0-33.087,0-49.63c0-1.416,0.236-2.833-1.299-2.951c-2.719-0.118-5.67,0-8.39,0
	C49.979,5.199,27.53,5.317,6.969,5.199L6.969,5.199z"/>
</svg>
