<?xml version="1.0" encoding="utf-8"?>
<!-- Generator: Adobe Illustrator 16.0.0, SVG Export Plug-In . SVG Version: 6.00 Build 0)  -->
<!DOCTYPE svg PUBLIC "-//W3C//DTD SVG 1.1//EN" "http://www.w3.org/Graphics/SVG/1.1/DTD/svg11.dtd">
<svg version="1.1" id="Layer_1" xmlns="http://www.w3.org/2000/svg" xmlns:xlink="http://www.w3.org/1999/xlink" x="0px" y="0px"
	 width="490px" height="54px" viewBox="0 0 490 54" enable-background="new 0 0 490 54" xml:space="preserve">
<g>
	<polygon fill-rule="evenodd" clip-rule="evenodd" fill="#FF0000" points="6.84,46.222 22.994,10.961 26.537,14.38 30.778,4.946 
		28.658,4.593 35.377,0.229 35.028,7.423 32.903,6.126 26.772,19.688 23.823,15.796 10.14,46.222 	"/>
	
		<rect x="0.234" y="16.385" fill-rule="evenodd" clip-rule="evenodd" fill="#FFFFFF" stroke="#7A2776" stroke-width="0.1984" stroke-miterlimit="10" width="47.527" height="0.827"/>
	<rect x="0.234" y="39.733" fill-rule="evenodd" clip-rule="evenodd" fill="#7A2776" width="47.527" height="0.829"/>
	<rect x="0.234" y="42.33" fill-rule="evenodd" clip-rule="evenodd" fill="#7A2776" width="47.527" height="0.824"/>
	<path fill-rule="evenodd" clip-rule="evenodd" fill="#7A2776" d="M-0.001,36.553v-0.472H0.47c0.471,0,0.829-0.118,1.182-0.235
		c0.235-0.122,0.354-0.357,0.471-0.594c0.118-0.235,0.118-0.707,0.118-1.649V22.518c0-0.824,0-1.416-0.118-1.651
		s-0.236-0.354-0.471-0.589c-0.354-0.118-0.711-0.236-1.182-0.236h-0.471v-0.354h7.313c2.007,0,3.657,0.236,4.835,0.707
		c1.414,0.707,2.596,1.77,3.303,3.065c0.825,1.416,1.178,2.95,1.178,4.602c0,1.296-0.236,2.356-0.589,3.303
		c-0.354,1.061-0.825,1.885-1.414,2.475c-0.593,0.706-1.3,1.178-2.007,1.649c-0.825,0.357-1.767,0.711-2.95,0.828
		c-0.471,0.118-1.292,0.236-2.356,0.236H-0.001z M6.251,20.513v13.208c0,0.707,0,1.178,0.118,1.296c0,0.118,0.118,0.235,0.354,0.354
		c0.236,0.118,0.471,0.235,0.942,0.235c1.296,0,2.361-0.471,3.067-1.413c1.061-1.297,1.532-3.304,1.532-6.013
		c0-2.123-0.353-3.893-1.06-5.19c-0.472-0.942-1.178-1.651-2.007-2.005C8.612,20.631,7.665,20.513,6.251,20.513L6.251,20.513z
		 M29.6,27.588c1.536,0.354,2.592,0.827,3.303,1.298c0.942,0.825,1.296,1.768,1.296,2.95c0,1.296-0.471,2.356-1.414,3.181
		c-1.3,0.946-3.067,1.536-5.428,1.536h-8.369v-0.472c0.707,0,1.296-0.118,1.532-0.235c0.236-0.122,0.471-0.357,0.589-0.594
		c0.118-0.235,0.118-0.824,0.118-1.649V22.636c0-0.942,0-1.534-0.118-1.77c-0.118-0.235-0.353-0.472-0.589-0.589
		c-0.236-0.118-0.825-0.236-1.532-0.236v-0.354h7.898c1.889,0,3.303,0.118,4.014,0.472c0.821,0.354,1.414,0.825,1.885,1.534
		c0.471,0.706,0.707,1.413,0.707,2.122c0,0.825-0.236,1.532-0.825,2.241C32.079,26.646,31.014,27.117,29.6,27.588L29.6,27.588z
		 M25.119,27.234c1.182,0,2.003-0.117,2.596-0.471c0.471-0.236,0.942-0.59,1.178-1.063c0.354-0.472,0.471-1.061,0.471-1.886
		c0-0.709-0.118-1.298-0.354-1.769c-0.354-0.472-0.707-0.827-1.296-1.063c-0.593-0.354-1.414-0.472-2.596-0.472V27.234z
		 M25.119,28.18v5.423v0.59c0,0.471,0.118,0.824,0.354,1.06c0.118,0.236,0.471,0.354,0.942,0.354c0.593,0,1.178-0.235,1.771-0.471
		c0.471-0.354,0.942-0.707,1.178-1.296c0.354-0.59,0.471-1.179,0.471-1.886c0-0.711-0.118-1.418-0.471-2.125
		c-0.354-0.589-0.825-1.06-1.414-1.296C27.244,28.297,26.301,28.18,25.119,28.18L25.119,28.18z M47.643,19.215l0.118,5.661H47.29
		c-0.235-1.416-0.825-2.594-1.771-3.421c-0.943-0.824-1.885-1.296-3.063-1.296c-0.825,0-1.414,0.235-1.885,0.707
		s-0.707,0.944-0.707,1.533c0,0.354,0,0.707,0.236,1.061c0.235,0.355,0.585,0.709,1.056,1.063c0.476,0.354,1.3,0.825,2.714,1.534
		c1.889,0.942,3.186,1.885,3.893,2.712c0.707,0.824,1.064,1.885,1.064,2.949c0,1.414-0.593,2.592-1.654,3.652
		c-1.061,1.064-2.474,1.536-4.128,1.536c-0.471,0-1.06-0.118-1.531-0.236c-0.358,0-0.943-0.235-1.65-0.589
		c-0.471-0.118-0.707-0.235-1.064-0.235c-0.118,0-0.354,0.117-0.589,0.235c-0.236,0.235-0.471,0.472-0.589,0.825h-0.471v-6.371
		h0.471c0.354,1.771,1.061,3.186,2.007,4.128c1.056,0.942,2.121,1.3,3.299,1.3c0.942,0,1.649-0.239,2.243-0.711
		c0.589-0.471,0.825-1.06,0.825-1.767c0-0.354-0.118-0.825-0.354-1.179c-0.235-0.354-0.471-0.707-0.942-1.064
		c-0.357-0.354-1.178-0.707-2.243-1.296c-1.536-0.707-2.592-1.414-3.186-1.885c-0.707-0.591-1.178-1.181-1.531-1.77
		c-0.354-0.709-0.589-1.416-0.589-2.24c0-1.299,0.471-2.477,1.532-3.421c0.947-0.943,2.125-1.416,3.656-1.416
		c0.472,0,1.061,0.12,1.532,0.237c0.358,0.118,0.829,0.235,1.414,0.589c0.475,0.236,0.947,0.354,1.182,0.354
		c0.118,0,0.354-0.117,0.472-0.235c0.118-0.118,0.235-0.354,0.353-0.944H47.643z"/>
	<polygon fill-rule="evenodd" clip-rule="evenodd" fill="#FF0000" points="22.994,10.961 26.537,14.38 30.778,4.946 28.658,4.593 
		35.377,0.229 35.028,7.423 32.903,6.126 26.772,19.688 23.823,15.796 	"/>
	<path fill="#7A2776" d="M0.234,52.117v-4.246H1.77c0.236,0,0.471,0,0.707,0c0.236,0.118,0.471,0.236,0.589,0.354
		c0.235,0.236,0.353,0.472,0.471,0.707c0.118,0.357,0.24,0.594,0.24,1.064c0,0.235-0.122,0.589-0.122,0.825
		c-0.118,0.235-0.236,0.471-0.354,0.589s-0.235,0.354-0.354,0.354c-0.118,0.118-0.354,0.235-0.471,0.235
		c-0.236,0.118-0.471,0.118-0.707,0.118H0.234z M0.828,51.646H1.77c0.236,0,0.471-0.117,0.589-0.117
		c0.118-0.118,0.235-0.118,0.354-0.236c0.118-0.117,0.235-0.354,0.354-0.589c0-0.118,0.118-0.472,0.118-0.707
		c0-0.471-0.118-0.824-0.236-1.064c-0.118-0.235-0.354-0.471-0.589-0.471c-0.118-0.118-0.354-0.118-0.707-0.118H0.828V51.646z
		 M6.605,52.117v-4.246h3.063v0.472H7.194v1.3h2.361v0.472H7.194v1.531H9.79v0.472H6.605z M12.74,52.117v-4.246h0.585v1.771h2.125
		v-1.771h0.589v4.246H15.45v-2.003h-2.125v2.003H12.74z M19.102,52.117v-4.246h1.889c0.354,0,0.589,0,0.825,0.118
		c0.122,0,0.357,0.235,0.471,0.354c0.122,0.235,0.122,0.471,0.122,0.711c0,0.235-0.122,0.472-0.236,0.707
		c-0.235,0.235-0.471,0.354-0.946,0.354c0.118,0.117,0.24,0.235,0.353,0.235c0.122,0.118,0.358,0.354,0.472,0.589l0.707,1.179
		h-0.707l-0.585-0.942c-0.122-0.236-0.24-0.472-0.358-0.59c-0.118-0.117-0.235-0.235-0.235-0.235
		c-0.118-0.118-0.236-0.118-0.236-0.118c-0.118,0-0.235,0-0.354,0h-0.589v1.886H19.102z M19.695,49.761h1.178
		c0.235,0,0.354-0.118,0.593-0.118c0.113,0,0.235-0.117,0.235-0.235c0.114-0.118,0.114-0.235,0.114-0.354
		c0-0.24,0-0.357-0.236-0.593c-0.113-0.118-0.353-0.118-0.589-0.118h-1.296V49.761z M25.001,52.117l1.536-4.246h0.707l1.649,4.246
		h-0.589l-0.475-1.296h-1.764l-0.475,1.296H25.001z M26.18,50.35h1.414l-0.471-1.178c-0.114-0.358-0.236-0.594-0.236-0.829
		c-0.114,0.235-0.114,0.471-0.235,0.711L26.18,50.35z M31.485,52.117v-4.246h1.418c0.354,0,0.589,0,0.825,0
		c0.236,0.118,0.354,0.236,0.589,0.354c0.235,0.236,0.354,0.472,0.475,0.707c0.114,0.357,0.114,0.594,0.114,1.064
		c0,0.235,0,0.589-0.114,0.825c0,0.235-0.122,0.471-0.24,0.589c-0.118,0.118-0.235,0.354-0.354,0.354
		c-0.118,0.118-0.354,0.235-0.471,0.235c-0.235,0.118-0.471,0.118-0.707,0.118H31.485z M32.079,51.646h0.825
		c0.354,0,0.471-0.117,0.707-0.117c0.118-0.118,0.235-0.118,0.354-0.236c0.118-0.117,0.235-0.354,0.354-0.589
		c0-0.118,0-0.472,0-0.707c0-0.471,0-0.824-0.118-1.064c-0.235-0.235-0.354-0.471-0.589-0.471c-0.118-0.118-0.354-0.118-0.707-0.118
		h-0.825V51.646z M40.57,47.871h0.585v2.479c0,0.354,0,0.707-0.114,0.942c-0.122,0.236-0.235,0.472-0.593,0.59
		c-0.236,0.235-0.472,0.235-0.943,0.235c-0.349,0-0.707,0-0.942-0.118c-0.236-0.235-0.354-0.354-0.471-0.589
		c-0.118-0.354-0.236-0.707-0.236-1.061v-2.479h0.589v2.479c0,0.354,0,0.589,0.118,0.707c0,0.235,0.118,0.354,0.354,0.472
		c0.118,0.117,0.353,0.117,0.589,0.117c0.357,0,0.707-0.117,0.829-0.235c0.236-0.235,0.236-0.589,0.236-1.061V47.871z
		 M44.227,52.117v-4.246h0.585l2.125,3.304v-3.304h0.589v4.246h-0.589l-2.125-3.304v3.304H44.227z"/>
	<path fill="#7A2776" d="M59.084,34.074v-0.354h0.589c0.589,0,0.942-0.118,1.178-0.235c0.235-0.236,0.471-0.472,0.593-0.707
		c0.114-0.118,0.114-0.707,0.114-1.654V19.688c0-0.944,0-1.533-0.114-1.769c-0.122-0.118-0.235-0.354-0.593-0.472
		c-0.236-0.235-0.707-0.355-1.178-0.355h-0.589v-0.354h7.902c2.003,0,3.656,0.235,4.948,0.827c1.536,0.707,2.714,1.77,3.543,3.065
		c0.82,1.416,1.178,3.067,1.178,4.834c0,1.181-0.118,2.359-0.593,3.421c-0.35,0.942-0.821,1.886-1.527,2.479
		c-0.594,0.707-1.3,1.296-2.125,1.649c-0.825,0.472-1.889,0.707-3.067,0.942c-0.472,0.118-1.296,0.118-2.356,0.118H59.084z
		 M65.808,17.683v13.56c0,0.711,0,1.183,0.114,1.3c0,0.236,0.122,0.354,0.235,0.472c0.236,0.118,0.593,0.118,1.064,0.118
		c1.414,0,2.475-0.472,3.299-1.414c1.064-1.3,1.536-3.421,1.536-6.135c0-2.24-0.357-4.008-1.064-5.424
		c-0.585-1.063-1.296-1.77-2.121-2.123C68.282,17.801,67.222,17.683,65.808,17.683L65.808,17.683z M87.975,16.503
		c2.714-0.118,4.957,0.709,6.724,2.358c1.768,1.77,2.597,3.892,2.597,6.486c0,2.24-0.593,4.127-1.89,5.895
		c-1.767,2.125-4.127,3.303-7.309,3.303c-3.186,0-5.546-1.06-7.313-3.181c-1.3-1.653-2.007-3.658-2.007-6.017
		c0-2.595,0.942-4.717,2.714-6.486C83.14,17.212,85.383,16.385,87.975,16.503L87.975,16.503z M88.097,17.329
		c-1.654,0-2.832,0.825-3.657,2.358c-0.707,1.414-1.064,3.302-1.064,5.777c0,2.95,0.593,5.188,1.649,6.606
		c0.711,0.942,1.771,1.531,3.072,1.531c0.82,0,1.649-0.235,2.238-0.707c0.707-0.589,1.296-1.413,1.768-2.596
		c0.357-1.178,0.593-2.829,0.593-4.717c0-2.358-0.235-4.008-0.707-5.188c-0.358-1.18-0.947-1.887-1.654-2.358
		C89.746,17.565,88.917,17.329,88.097,17.329L88.097,17.329z M108.378,16.503c2.828-0.118,5.07,0.709,6.842,2.358
		c1.649,1.77,2.592,3.892,2.592,6.486c0,2.24-0.707,4.127-2.007,5.895c-1.649,2.125-4.124,3.303-7.191,3.303
		c-3.186,0-5.66-1.06-7.313-3.181c-1.414-1.653-2.003-3.658-2.003-6.017c0-2.595,0.825-4.717,2.596-6.486
		C103.661,17.212,105.786,16.385,108.378,16.503L108.378,16.503z M108.496,17.329c-1.532,0-2.71,0.825-3.539,2.358
		c-0.707,1.414-1.061,3.302-1.061,5.777c0,2.95,0.472,5.188,1.532,6.606c0.707,0.942,1.771,1.531,3.068,1.531
		c0.942,0,1.653-0.235,2.238-0.707c0.707-0.589,1.3-1.413,1.771-2.596c0.471-1.178,0.589-2.829,0.589-4.717
		c0-2.358-0.118-4.008-0.589-5.188c-0.471-1.18-0.942-1.887-1.649-2.358C110.149,17.565,109.438,17.329,108.496,17.329
		L108.496,17.329z M125.243,16.738l8.609,10.732v-7.43c0-1.062-0.118-1.769-0.471-2.122c-0.357-0.59-1.064-0.827-2.007-0.827v-0.354
		h5.664v0.354c-0.707,0.12-1.183,0.237-1.418,0.355c-0.236,0.235-0.471,0.472-0.589,0.825c-0.118,0.354-0.235,0.942-0.235,1.769
		v14.504h-0.471l-11.794-14.504v11.083c0,0.947,0.24,1.654,0.711,2.008s1.056,0.589,1.649,0.589h0.354v0.354h-6.131v-0.354
		c0.943,0,1.532-0.235,2.003-0.589c0.354-0.472,0.471-1.061,0.471-2.008V18.743l-0.354-0.471c-0.353-0.472-0.707-0.707-0.942-0.943
		c-0.235-0.117-0.707-0.237-1.178-0.237v-0.354H125.243z M156.022,24.876c1.649,0.354,2.832,0.825,3.417,1.416
		c0.946,0.707,1.536,1.77,1.536,3.065s-0.589,2.36-1.65,3.185c-1.3,1.061-3.185,1.532-5.663,1.532h-8.841v-0.354
		c0.821,0,1.414-0.118,1.649-0.235c0.35-0.236,0.471-0.354,0.589-0.59c0.118-0.235,0.235-0.824,0.235-1.771V19.688
		c0-0.944-0.118-1.533-0.235-1.769c-0.118-0.236-0.24-0.472-0.589-0.59c-0.235-0.117-0.829-0.237-1.649-0.237v-0.354h8.369
		c2.007,0,3.421,0.118,4.246,0.474c0.824,0.354,1.531,0.942,2.003,1.649c0.471,0.709,0.711,1.416,0.711,2.24
		c0,0.827-0.354,1.534-0.947,2.241C158.619,23.934,157.554,24.522,156.022,24.876L156.022,24.876z M151.306,24.522
		c1.178,0,2.121-0.117,2.714-0.354c0.585-0.354,1.056-0.709,1.292-1.18c0.357-0.472,0.475-1.179,0.475-1.888
		c0-0.824-0.118-1.414-0.475-1.887c-0.236-0.589-0.707-0.942-1.292-1.179c-0.593-0.235-1.418-0.354-2.714-0.354V24.522z
		 M151.306,25.583v5.541v0.594c0,0.471,0.118,0.824,0.354,1.061c0.235,0.235,0.589,0.354,1.06,0.354
		c0.589,0,1.178-0.118,1.771-0.472c0.585-0.235,1.056-0.707,1.296-1.296c0.354-0.593,0.471-1.183,0.471-1.89
		c0-0.824-0.118-1.533-0.471-2.24c-0.353-0.589-0.825-1.061-1.532-1.296C153.662,25.701,152.602,25.465,151.306,25.583
		L151.306,25.583z M162.389,16.738h9.084v0.354h-0.475c-0.707,0-1.178,0.12-1.414,0.237c-0.235,0.118-0.471,0.354-0.589,0.59
		c0,0.235-0.122,0.942-0.122,1.887v8.491c0,1.649,0.122,2.592,0.357,3.186c0.236,0.471,0.589,0.942,1.178,1.178
		c0.589,0.354,1.178,0.589,2.007,0.589c0.942,0,1.767-0.235,2.474-0.707c0.589-0.354,1.182-0.942,1.418-1.771
		c0.349-0.707,0.471-2.003,0.471-3.891v-7.075c0-0.826,0-1.298-0.236-1.651c-0.122-0.354-0.357-0.589-0.593-0.707
		c-0.349-0.235-0.942-0.355-1.649-0.355v-0.354h6.013v0.354h-0.35c-0.475,0-0.829,0.12-1.182,0.355s-0.589,0.472-0.707,0.825
		c-0.118,0.354-0.118,0.824-0.118,1.533v6.604c0,2.122-0.236,3.536-0.471,4.479c-0.236,0.947-0.943,1.771-1.885,2.479
		c-1.064,0.825-2.478,1.178-4.363,1.178c-1.536,0-2.6-0.235-3.421-0.589c-1.182-0.589-2.007-1.296-2.361-2.12
		c-0.471-0.829-0.707-2.008-0.707-3.539v-8.491c0-0.944-0.118-1.651-0.235-1.887c-0.118-0.236-0.24-0.472-0.589-0.59
		c-0.236-0.117-0.707-0.237-1.536-0.237V16.738z M193.169,16.268l0.121,5.896h-0.475c-0.236-1.533-0.825-2.712-1.886-3.538
		c-0.946-0.943-2.003-1.414-3.067-1.414c-0.942,0-1.649,0.235-2.12,0.707c-0.472,0.471-0.829,1.061-0.829,1.651
		c0,0.354,0.122,0.707,0.357,1.061s0.585,0.824,1.178,1.18c0.354,0.236,1.297,0.825,2.828,1.532
		c2.007,0.944,3.421,1.887,4.128,2.831c0.707,0.825,1.064,1.888,1.064,3.065c0,1.414-0.593,2.714-1.771,3.656
		c-1.178,1.061-2.592,1.649-4.363,1.649c-0.472,0-1.061-0.117-1.532-0.235c-0.475-0.117-1.06-0.235-1.767-0.589
		c-0.472-0.118-0.829-0.235-1.064-0.235c-0.236,0-0.472,0.117-0.707,0.235c-0.235,0.235-0.472,0.472-0.589,0.824h-0.472v-6.604
		h0.472c0.354,1.887,1.06,3.301,2.124,4.247c1.057,0.943,2.239,1.414,3.535,1.414c0.942,0,1.649-0.235,2.242-0.707
		c0.59-0.589,0.943-1.178,0.943-1.889c0-0.354-0.118-0.825-0.354-1.179c-0.236-0.354-0.59-0.706-1.061-1.06
		c-0.357-0.354-1.179-0.827-2.36-1.416c-1.532-0.707-2.71-1.414-3.421-2.005c-0.707-0.472-1.179-1.179-1.532-1.77
		c-0.354-0.707-0.589-1.414-0.589-2.24c0-1.414,0.472-2.595,1.531-3.537c1.064-1.063,2.356-1.533,3.893-1.533
		c0.472,0,1.061,0.117,1.649,0.235c0.357,0.117,0.829,0.235,1.414,0.589c0.593,0.237,0.946,0.355,1.182,0.355
		c0.236,0,0.472,0,0.59-0.118c0.117-0.237,0.235-0.473,0.354-1.062H193.169z M205.081,33.721v0.354H196v-0.354h0.59
		c0.471,0,0.942-0.118,1.178-0.354c0.235-0.118,0.472-0.235,0.593-0.589c0-0.236,0.114-0.707,0.114-1.654V19.688
		c0-0.944-0.114-1.533-0.114-1.769c-0.121-0.118-0.357-0.354-0.593-0.472c-0.354-0.235-0.707-0.355-1.178-0.355H196v-0.354h9.081
		v0.354h-0.59c-0.475,0-0.946,0.12-1.182,0.355c-0.236,0.118-0.472,0.235-0.585,0.589c0,0.236-0.122,0.707-0.122,1.651v11.437
		c0,0.947,0.122,1.536,0.122,1.771c0.113,0.118,0.349,0.354,0.585,0.59c0.357,0.117,0.707,0.235,1.182,0.235H205.081z
		 M212.271,16.738l8.613,10.732v-7.43c0-1.062-0.235-1.769-0.471-2.122c-0.472-0.59-1.183-0.827-2.125-0.827v-0.354h5.781v0.354
		c-0.711,0.12-1.183,0.237-1.536,0.355c-0.235,0.235-0.354,0.472-0.589,0.825c-0.118,0.354-0.118,0.942-0.118,1.769v14.504h-0.471
		l-11.795-14.504v11.083c0,0.947,0.236,1.654,0.707,2.008c0.472,0.354,0.947,0.589,1.532,0.589h0.471v0.354h-6.248v-0.354
		c0.942,0,1.649-0.235,2.007-0.589c0.35-0.472,0.589-1.061,0.589-2.008V18.743l-0.354-0.471c-0.357-0.472-0.706-0.707-0.942-0.943
		c-0.357-0.117-0.707-0.237-1.3-0.237v-0.354H212.271z M231.851,17.683v7.076h0.354c1.064,0,1.885-0.354,2.356-1.061
		c0.593-0.592,0.829-1.651,1.064-3.067h0.472v9.197h-0.472c-0.118-1.06-0.354-1.767-0.707-2.476
		c-0.357-0.589-0.707-1.061-1.179-1.296c-0.357-0.238-1.064-0.238-1.889-0.238v4.835c0,0.946,0,1.535,0.118,1.771
		c0.117,0.235,0.235,0.354,0.471,0.471c0.235,0.236,0.594,0.236,1.064,0.236h1.057c1.653,0,2.949-0.354,3.892-1.061
		c1.064-0.829,1.771-1.89,2.125-3.539h0.472l-0.707,5.542h-15.094v-0.354h0.585c0.476,0,0.829-0.118,1.183-0.354
		c0.235-0.118,0.354-0.235,0.472-0.589c0.117-0.236,0.235-0.707,0.235-1.654V19.688c0-0.826-0.118-1.298-0.118-1.533
		c-0.117-0.235-0.235-0.472-0.471-0.707c-0.354-0.235-0.707-0.355-1.301-0.355h-0.585v-0.354h14.505v5.072h-0.472
		c-0.235-1.18-0.593-2.123-1.064-2.714c-0.35-0.471-1.061-0.942-1.885-1.178c-0.472-0.118-1.296-0.236-2.714-0.236H231.851z
		 M254.61,16.268l0.118,5.896h-0.472c-0.235-1.533-0.942-2.712-1.885-3.538c-0.947-0.943-2.008-1.414-3.186-1.414
		c-0.825,0-1.531,0.235-2.003,0.707c-0.593,0.471-0.825,1.061-0.825,1.651c0,0.354,0.114,0.707,0.35,1.061
		c0.236,0.354,0.594,0.824,1.183,1.18c0.354,0.236,1.296,0.825,2.71,1.532c2.125,0.944,3.421,1.887,4.128,2.831
		c0.706,0.825,1.06,1.888,1.06,3.065c0,1.414-0.589,2.714-1.649,3.656c-1.178,1.061-2.592,1.649-4.363,1.649
		c-0.471,0-1.061-0.117-1.531-0.235c-0.472-0.117-1.061-0.235-1.886-0.589c-0.357-0.118-0.711-0.235-0.946-0.235
		s-0.472,0.117-0.707,0.235c-0.235,0.235-0.472,0.472-0.589,0.824h-0.472v-6.604h0.472c0.354,1.887,1.061,3.301,2.121,4.247
		c1.064,0.943,2.242,1.414,3.538,1.414c0.942,0,1.649-0.235,2.243-0.707c0.589-0.589,0.824-1.178,0.824-1.889
		c0-0.354-0.117-0.825-0.235-1.179c-0.235-0.354-0.589-0.706-1.061-1.06c-0.476-0.354-1.183-0.827-2.36-1.416
		c-1.531-0.707-2.714-1.414-3.421-2.005c-0.707-0.472-1.179-1.179-1.532-1.77c-0.471-0.707-0.589-1.414-0.589-2.24
		c0-1.414,0.472-2.595,1.532-3.537c0.946-1.063,2.242-1.533,3.774-1.533c0.589,0,1.178,0.117,1.649,0.235
		c0.471,0.117,0.946,0.235,1.535,0.589c0.59,0.237,0.943,0.355,1.179,0.355s0.471,0,0.589-0.118
		c0.118-0.237,0.235-0.473,0.354-1.062H254.61z M269.236,16.268l0.118,5.896h-0.476c-0.235-1.533-0.942-2.712-1.885-3.538
		c-0.943-0.943-2.003-1.414-3.186-1.414c-0.825,0-1.532,0.235-2.003,0.707c-0.589,0.471-0.825,1.061-0.825,1.651
		c0,0.354,0.118,0.707,0.354,1.061c0.236,0.354,0.589,0.824,1.179,1.18c0.354,0.236,1.296,0.825,2.714,1.532
		c2.12,0.944,3.417,1.887,4.128,2.831c0.707,0.825,1.061,1.888,1.061,3.065c0,1.414-0.472,2.714-1.654,3.656
		c-1.178,1.061-2.592,1.649-4.363,1.649c-0.471,0-1.061-0.117-1.531-0.235c-0.472-0.117-1.061-0.235-1.886-0.589
		c-0.354-0.118-0.711-0.235-0.946-0.235s-0.472,0.117-0.707,0.235c-0.235,0.235-0.471,0.472-0.589,0.824h-0.472v-6.604h0.472
		c0.354,1.887,1.061,3.301,2.125,4.247c1.06,0.943,2.238,1.414,3.534,1.414c0.947,0,1.653-0.235,2.243-0.707
		c0.589-0.589,0.824-1.178,0.824-1.889c0-0.354-0.118-0.825-0.235-1.179c-0.235-0.354-0.589-0.706-1.061-1.06
		c-0.471-0.354-1.178-0.827-2.36-1.416c-1.532-0.707-2.71-1.414-3.417-2.005c-0.711-0.472-1.183-1.179-1.535-1.77
		c-0.472-0.707-0.59-1.414-0.59-2.24c0-1.414,0.472-2.595,1.532-3.537c0.946-1.063,2.242-1.533,3.892-1.533
		c0.472,0,1.064,0.117,1.536,0.235c0.472,0.117,0.942,0.235,1.531,0.589c0.589,0.237,0.942,0.355,1.179,0.355
		c0.235,0,0.471,0,0.589-0.118c0.118-0.237,0.235-0.473,0.354-1.062H269.236z M290.46,16.268l0.118,5.896h-0.471
		c-0.236-1.533-0.943-2.712-1.886-3.538c-0.942-0.943-2.007-1.414-3.186-1.414c-0.824,0-1.531,0.235-2.002,0.707
		c-0.59,0.471-0.829,1.061-0.829,1.651c0,0.354,0.117,0.707,0.239,1.061c0.354,0.354,0.707,0.824,1.296,1.18
		c0.354,0.236,1.296,0.825,2.71,1.532c2.125,0.944,3.421,1.887,4.128,2.831c0.711,0.825,1.064,1.888,1.064,3.065
		c0,1.414-0.593,2.714-1.653,3.656c-1.179,1.061-2.592,1.649-4.363,1.649c-0.59,0-1.061-0.117-1.532-0.235
		c-0.471-0.117-1.06-0.235-1.889-0.589c-0.354-0.118-0.707-0.235-0.942-0.235c-0.236,0-0.472,0.117-0.707,0.235
		c-0.236,0.235-0.472,0.472-0.59,0.824h-0.471v-6.604h0.471c0.354,1.887,1.061,3.301,2.121,4.247
		c1.064,0.943,2.243,1.414,3.539,1.414c0.942,0,1.653-0.235,2.242-0.707c0.59-0.589,0.825-1.178,0.825-1.889
		c0-0.354-0.118-0.825-0.354-1.179c-0.118-0.354-0.472-0.706-0.942-1.06c-0.472-0.354-1.183-0.827-2.361-1.416
		c-1.649-0.707-2.714-1.414-3.42-2.005c-0.707-0.472-1.179-1.179-1.65-1.77c-0.354-0.707-0.471-1.414-0.471-2.24
		c0-1.414,0.471-2.595,1.531-3.537c0.943-1.063,2.243-1.533,3.774-1.533c0.589,0,1.179,0.117,1.649,0.235
		c0.476,0.117,0.947,0.235,1.536,0.589c0.589,0.237,0.942,0.355,1.178,0.355c0.236,0,0.354,0,0.59-0.118
		c0.117-0.237,0.235-0.473,0.354-1.062H290.46z M310.274,16.268v6.132h-0.471c-0.354-1.651-1.064-2.829-2.125-3.656
		c-1.061-0.942-2.238-1.296-3.539-1.296c-1.061,0-2.003,0.235-2.945,0.942c-0.942,0.59-1.535,1.416-2.007,2.477
		c-0.472,1.298-0.825,2.712-0.825,4.245c0,1.652,0.236,3.068,0.59,4.363c0.471,1.179,1.064,2.243,1.889,2.832
		c0.825,0.707,1.885,1.061,3.299,1.061c1.064,0,2.008-0.354,2.95-0.825c0.942-0.471,1.889-1.3,2.949-2.478V31.6
		c-1.061,1.061-2.007,1.768-3.067,2.239c-1.061,0.471-2.356,0.706-3.774,0.706c-1.768,0-3.421-0.353-4.952-1.178
		c-1.414-0.707-2.475-1.768-3.304-3.186c-0.824-1.413-1.178-2.829-1.178-4.48c0-1.649,0.471-3.184,1.296-4.717
		c0.946-1.532,2.007-2.595,3.539-3.419c1.418-0.827,3.067-1.298,4.717-1.298c1.182,0,2.479,0.235,3.892,0.824
		c0.707,0.355,1.296,0.474,1.414,0.474c0.357,0,0.593-0.118,0.711-0.354c0.235-0.12,0.354-0.474,0.472-0.944H310.274z
		 M318.884,25.701v5.423c0,0.947,0.118,1.536,0.118,1.771c0.117,0.118,0.354,0.354,0.589,0.59c0.354,0.117,0.707,0.235,1.178,0.235
		h0.59v0.354h-9.081v-0.354h0.59c0.475,0,0.946-0.118,1.182-0.354c0.235-0.118,0.472-0.235,0.589-0.589
		c0-0.236,0.118-0.707,0.118-1.654V19.688c0-0.944-0.118-1.533-0.118-1.769c-0.117-0.118-0.354-0.354-0.589-0.472
		c-0.354-0.235-0.707-0.355-1.182-0.355h-0.59v-0.354h9.081v0.354h-0.59c-0.471,0-0.942,0.12-1.178,0.355
		c-0.235,0.118-0.472,0.235-0.589,0.589c0,0.236-0.118,0.707-0.118,1.651v4.953h6.249v-4.953c0-0.944-0.118-1.533-0.236-1.769
		c0-0.118-0.235-0.354-0.471-0.472c-0.354-0.235-0.707-0.355-1.179-0.355h-0.589v-0.354h9.08v0.354h-0.589
		c-0.476,0-0.946,0.12-1.183,0.355c-0.235,0.118-0.471,0.235-0.589,0.589c-0.118,0.236-0.118,0.707-0.118,1.651v11.437
		c0,0.947,0,1.536,0.118,1.771c0.118,0.118,0.354,0.354,0.589,0.59c0.354,0.117,0.707,0.235,1.183,0.235h0.589v0.354h-9.08v-0.354
		h0.589c0.472,0,0.825-0.118,1.179-0.354c0.235-0.118,0.354-0.235,0.471-0.589c0.118-0.236,0.236-0.707,0.236-1.654v-5.423H318.884z
		 M342.351,16.503c2.714-0.118,5.07,0.709,6.724,2.358c1.768,1.77,2.593,3.892,2.593,6.486c0,2.24-0.59,4.127-1.886,5.895
		c-1.771,2.125-4.128,3.303-7.313,3.303c-3.067,0-5.542-1.06-7.191-3.181c-1.418-1.653-2.125-3.658-2.125-6.017
		c0-2.595,0.942-4.717,2.714-6.486C337.634,17.212,339.759,16.385,342.351,16.503L342.351,16.503z M342.469,17.329
		c-1.532,0-2.828,0.825-3.657,2.358c-0.707,1.414-0.942,3.302-0.942,5.777c0,2.95,0.472,5.188,1.532,6.606
		c0.711,0.942,1.771,1.531,3.067,1.531c0.824,0,1.653-0.235,2.242-0.707c0.707-0.589,1.296-1.413,1.768-2.596
		c0.354-1.178,0.589-2.829,0.589-4.717c0-2.358-0.235-4.008-0.589-5.188c-0.472-1.18-1.061-1.887-1.649-2.358
		C344.122,17.565,343.411,17.329,342.469,17.329L342.469,17.329z M362.754,16.503c2.828-0.118,5.07,0.709,6.838,2.358
		c1.653,1.77,2.596,3.892,2.596,6.486c0,2.24-0.707,4.127-2.007,5.895c-1.649,2.125-4.124,3.303-7.191,3.303
		c-3.185,0-5.541-1.06-7.313-3.181c-1.296-1.653-2.003-3.658-2.003-6.017c0-2.595,0.824-4.717,2.592-6.486
		C358.037,17.212,360.275,16.385,362.754,16.503L362.754,16.503z M362.989,17.329c-1.653,0-2.831,0.825-3.656,2.358
		c-0.707,1.414-1.061,3.302-1.061,5.777c0,2.95,0.589,5.188,1.532,6.606c0.824,0.942,1.767,1.531,3.067,1.531
		c0.942,0,1.649-0.235,2.238-0.707c0.824-0.589,1.418-1.413,1.771-2.596c0.471-1.178,0.707-2.829,0.707-4.717
		c0-2.358-0.236-4.008-0.707-5.188c-0.472-1.18-0.947-1.887-1.653-2.358C364.639,17.565,363.814,17.329,362.989,17.329
		L362.989,17.329z M389.759,28.062l-0.706,6.013h-15.451v-0.354h0.589c0.472,0,0.947-0.118,1.301-0.354
		c0.117-0.118,0.354-0.235,0.471-0.589c0.118-0.236,0.118-0.707,0.118-1.654V19.688c0-0.944,0-1.533-0.118-1.769
		c-0.117-0.118-0.354-0.354-0.589-0.472c-0.235-0.235-0.711-0.355-1.183-0.355h-0.589v-0.354h9.316v0.354h-0.707
		c-0.589,0-0.942,0.12-1.296,0.355c-0.236,0.118-0.354,0.235-0.472,0.589c-0.118,0.236-0.118,0.707-0.118,1.651v11.084
		c0,0.946,0,1.535,0.118,1.771c0.118,0.236,0.235,0.354,0.589,0.472c0.236,0.118,0.707,0.118,1.532,0.118h1.418
		c0.942,0,1.767-0.118,2.356-0.472c0.589-0.354,1.178-0.824,1.531-1.536c0.476-0.706,0.946-1.767,1.3-3.063H389.759z
		 M413.933,16.268v6.132h-0.471c-0.59-1.651-1.414-2.947-2.592-3.773c-1.064-0.825-2.361-1.297-3.774-1.297
		c-1.296,0-2.36,0.354-3.186,1.061c-0.942,0.707-1.532,1.77-1.886,3.065c-0.353,1.298-0.471,2.714-0.471,4.01
		c0,1.652,0.118,3.186,0.589,4.481c0.354,1.178,0.942,2.125,1.886,2.714c0.824,0.589,1.889,0.942,3.067,0.942
		c0.471,0,0.824-0.117,1.296-0.235c0.471,0,0.942-0.118,1.414-0.354v-3.539c0-0.706-0.118-1.178-0.236-1.413
		c0-0.237-0.235-0.355-0.589-0.591c-0.235-0.118-0.589-0.236-1.061-0.236h-0.354v-0.471h8.374v0.471
		c-0.59,0.118-1.061,0.118-1.297,0.236c-0.239,0.235-0.475,0.471-0.593,0.709c-0.118,0.235-0.118,0.589-0.118,1.295v3.539
		c-1.061,0.472-2.238,0.825-3.416,1.179c-1.301,0.235-2.479,0.353-3.774,0.353c-1.654,0-3.067-0.235-4.128-0.706
		c-1.061-0.472-2.007-1.061-2.95-1.768c-0.824-0.707-1.413-1.536-1.885-2.479c-0.589-1.178-0.942-2.476-0.942-4.01
		c0-2.594,0.942-4.717,2.827-6.604c1.771-1.768,4.128-2.712,6.96-2.712c0.824,0,1.649,0.117,2.356,0.235
		c0.354,0.117,0.942,0.235,1.771,0.589c0.824,0.355,1.296,0.474,1.531,0.474c0.236,0,0.472-0.118,0.589-0.236
		c0.236-0.237,0.472-0.591,0.59-1.062H413.933z M423.253,26.174v4.95c0,0.947,0,1.536,0.118,1.771
		c0.117,0.236,0.354,0.472,0.707,0.59c0.235,0.117,0.824,0.235,1.531,0.235v0.354h-8.845v-0.354c0.825,0,1.296-0.118,1.649-0.235
		c0.235-0.118,0.476-0.354,0.594-0.59c0.117-0.235,0.117-0.824,0.117-1.771V19.688c0-0.944,0-1.533-0.117-1.769
		c-0.118-0.236-0.358-0.472-0.594-0.59c-0.354-0.117-0.824-0.237-1.649-0.237v-0.354h8.138c2.003,0,3.657,0.118,4.6,0.354
		c0.942,0.355,1.767,0.827,2.356,1.651c0.593,0.827,0.946,1.651,0.946,2.712c0,1.298-0.472,2.36-1.418,3.186
		c-0.589,0.589-1.414,0.942-2.475,1.298l4.246,5.897c0.472,0.706,0.942,1.178,1.179,1.413c0.235,0.236,0.706,0.354,1.178,0.354
		v0.472h-5.542l-5.541-7.9H423.253z M423.253,17.683v7.547h0.707c1.178,0,2.121-0.118,2.71-0.235
		c0.589-0.235,1.064-0.707,1.418-1.179c0.354-0.591,0.472-1.416,0.472-2.24c0-1.416-0.354-2.36-0.947-2.949
		c-0.589-0.707-1.649-0.943-2.945-0.943H423.253z M445.424,16.503c2.71-0.118,4.952,0.709,6.72,2.358
		c1.768,1.77,2.596,3.892,2.596,6.486c0,2.24-0.593,4.127-1.889,5.895c-1.768,2.125-4.128,3.303-7.309,3.303
		c-3.068,0-5.546-1.06-7.313-3.181c-1.296-1.653-2.007-3.658-2.007-6.017c0-2.595,0.946-4.717,2.714-6.486
		C440.703,17.212,442.827,16.385,445.424,16.503L445.424,16.503z M445.542,17.329c-1.536,0-2.832,0.825-3.657,2.358
		c-0.707,1.414-1.064,3.302-1.064,5.777c0,2.95,0.594,5.188,1.653,6.606c0.707,0.942,1.768,1.531,3.068,1.531
		c0.824,0,1.649-0.235,2.238-0.707c0.707-0.589,1.296-1.413,1.768-2.596c0.357-1.178,0.593-2.829,0.593-4.717
		c0-2.358-0.235-4.008-0.593-5.188c-0.472-1.18-1.061-1.887-1.65-2.358C447.191,17.565,446.366,17.329,445.542,17.329
		L445.542,17.329z M456.271,16.738h9.08v0.354h-0.471c-0.707,0-1.179,0.12-1.414,0.237c-0.235,0.118-0.472,0.354-0.594,0.59
		c-0.117,0.235-0.117,0.942-0.117,1.887v8.491c0,1.649,0.117,2.592,0.357,3.186c0.235,0.471,0.589,0.942,1.178,1.178
		c0.472,0.354,1.179,0.589,2.003,0.589c0.943,0,1.771-0.235,2.479-0.707c0.59-0.354,1.061-0.942,1.414-1.771
		c0.354-0.707,0.472-2.003,0.472-3.891v-7.075c0-0.826,0-1.298-0.236-1.651c-0.117-0.354-0.354-0.589-0.589-0.707
		c-0.354-0.235-0.942-0.355-1.649-0.355v-0.354h6.013v0.354h-0.354c-0.471,0-0.824,0.12-1.178,0.355s-0.59,0.472-0.707,0.825
		c-0.118,0.354-0.118,0.824-0.118,1.533v6.604c0,2.122-0.239,3.536-0.476,4.479c-0.235,0.947-0.942,1.771-2.002,2.479
		c-0.943,0.825-2.361,1.178-4.246,1.178c-1.531,0-2.596-0.235-3.421-0.589c-1.179-0.589-2.003-1.296-2.475-2.12
		c-0.354-0.829-0.589-2.008-0.589-3.539v-8.491c0-0.944-0.122-1.651-0.239-1.887c-0.118-0.236-0.236-0.472-0.59-0.59
		c-0.235-0.117-0.706-0.237-1.531-0.237V16.738z"/>
	<path fill="#7A2776" d="M481.863,26.292v4.832c0,0.947,0,1.536,0.117,1.771c0.118,0.236,0.354,0.472,0.59,0.59
		c0.353,0.117,0.824,0.235,1.649,0.235v0.354h-8.845v-0.354c0.828,0,1.3-0.118,1.653-0.235c0.235-0.236,0.471-0.354,0.589-0.59
		c0.118-0.235,0.118-0.824,0.118-1.771V19.688c0-0.944,0-1.533-0.118-1.769c-0.118-0.236-0.354-0.472-0.589-0.59
		c-0.354-0.117-0.825-0.237-1.653-0.237v-0.354h7.548c2.597,0,4.364,0.354,5.424,1.298c1.064,0.825,1.654,2.005,1.654,3.302
		c0,1.18-0.354,2.122-1.064,2.949c-0.707,0.824-1.649,1.296-2.945,1.651C485.166,26.174,483.748,26.292,481.863,26.292
		L481.863,26.292z M481.863,17.683v7.547c0.235,0,0.471,0,0.589,0c1.061,0,1.885-0.235,2.475-0.942
		c0.475-0.589,0.828-1.534,0.828-2.832c0-1.296-0.354-2.24-0.828-2.829c-0.59-0.59-1.414-0.943-2.593-0.943H481.863z"/>
	<path d="M66.75,48.932l1.296-6.72h1.531l-2.007,8.845h-1.528L64.39,44.69l-1.768,6.366h-1.414l-2.125-8.845h1.532l1.414,6.72
		l1.654-6.72h1.296L66.75,48.932z M72.057,45.279c0.235-0.354,0.471-0.472,0.825-0.711c0.236-0.118,0.589-0.118,0.942-0.118
		c0.354,0,0.711,0,0.947,0.118c0.235,0,0.471,0.239,0.707,0.357c0.114,0.235,0.235,0.472,0.349,0.825
		c0.122,0.354,0.236,0.706,0.236,1.178v4.128h-1.527v-4.246c0-0.354-0.122-0.706-0.236-0.942c-0.24-0.117-0.593-0.235-0.947-0.235
		c-0.235,0-0.589,0-0.825,0.235c-0.118,0.118-0.354,0.236-0.471,0.589v4.6h-1.536V41.74h1.536V45.279z M80.426,51.292
		c-0.471,0-0.942-0.117-1.292-0.354c-0.471-0.117-0.711-0.354-1.064-0.589c-0.235-0.354-0.471-0.707-0.589-1.061
		c-0.118-0.357-0.236-0.828-0.236-1.3v-0.235c0-0.472,0.118-0.943,0.236-1.414c0.118-0.354,0.354-0.707,0.589-1.061
		c0.354-0.235,0.593-0.472,0.943-0.589c0.471-0.24,0.829-0.24,1.178-0.24c0.471,0,0.946,0,1.3,0.24
		c0.354,0.117,0.589,0.354,0.825,0.589c0.235,0.354,0.471,0.707,0.589,1.061c0.118,0.354,0.118,0.824,0.118,1.296v0.707h-4.246
		c0,0.235,0,0.471,0.122,0.589c0.114,0.24,0.235,0.476,0.349,0.594c0.122,0.235,0.358,0.353,0.593,0.353
		c0.114,0.118,0.35,0.118,0.707,0.118c0.354,0,0.589,0,0.942-0.118c0.236-0.235,0.472-0.353,0.707-0.589l0.707,0.707
		c0,0.118-0.236,0.354-0.354,0.472c-0.118,0.117-0.354,0.235-0.589,0.354c-0.118,0.117-0.354,0.235-0.707,0.354
		C81.019,51.175,80.783,51.292,80.426,51.292L80.426,51.292z M80.19,45.633c-0.35,0-0.707,0.118-0.943,0.354
		c-0.235,0.354-0.349,0.707-0.471,1.178h2.832v-0.117c0-0.118,0-0.354-0.118-0.472c0-0.235-0.118-0.354-0.235-0.471
		c-0.118-0.236-0.236-0.354-0.354-0.354C80.662,45.633,80.426,45.633,80.19,45.633L80.19,45.633z M87.625,45.868
		c-0.122,0-0.122,0-0.239,0c-0.118,0-0.236,0-0.354,0c-0.354,0-0.589,0-0.825,0.118c-0.235,0.235-0.353,0.354-0.471,0.589v4.481
		h-1.532v-6.488h1.414v0.711c0.236-0.235,0.354-0.472,0.707-0.711c0.235-0.118,0.471-0.118,0.825-0.118c0.118,0,0.118,0,0.236,0
		c0.118,0,0.239,0,0.239,0V45.868z M91.396,51.292c-0.471,0-0.942-0.117-1.296-0.354c-0.472-0.117-0.711-0.354-1.061-0.589
		c-0.235-0.354-0.471-0.707-0.593-1.061c-0.114-0.357-0.236-0.828-0.236-1.3v-0.235c0-0.472,0.122-0.943,0.236-1.414
		c0.122-0.354,0.358-0.707,0.593-1.061c0.35-0.235,0.589-0.472,1.061-0.589c0.354-0.24,0.707-0.24,1.06-0.24
		c0.589,0,0.943,0,1.3,0.24c0.35,0.117,0.707,0.354,0.821,0.589c0.235,0.354,0.471,0.707,0.593,1.061
		c0.113,0.354,0.113,0.824,0.113,1.296v0.707h-4.241c0,0.235,0,0.471,0.118,0.589c0.118,0.24,0.236,0.476,0.354,0.594
		c0.118,0.235,0.354,0.353,0.589,0.353c0.118,0.118,0.353,0.118,0.707,0.118s0.589,0,0.947-0.118
		c0.235-0.235,0.471-0.353,0.707-0.589l0.707,0.707c0,0.118-0.236,0.354-0.358,0.472c-0.114,0.117-0.349,0.235-0.585,0.354
		c-0.122,0.117-0.357,0.235-0.707,0.354C91.989,51.175,91.749,51.292,91.396,51.292L91.396,51.292z M91.16,45.633
		c-0.353,0-0.707,0.118-0.942,0.354c-0.236,0.354-0.354,0.707-0.471,1.178h2.828v-0.117c0-0.118,0-0.354-0.114-0.472
		c0-0.235-0.122-0.354-0.236-0.471c-0.122-0.236-0.235-0.354-0.357-0.354C91.631,45.633,91.396,45.633,91.16,45.633L91.16,45.633z
		 M100.004,51.057h-1.532v-8.845h1.532V51.057z M103.19,44.568v0.711c0.235-0.235,0.589-0.472,0.825-0.589
		c0.354-0.24,0.707-0.24,1.178-0.24c0.235,0,0.593,0,0.829,0.118c0.236,0,0.471,0.239,0.585,0.357
		c0.236,0.235,0.357,0.472,0.472,0.825c0.122,0.235,0.122,0.706,0.122,1.06v4.246h-1.414v-4.246c0-0.235,0-0.354-0.122-0.589
		c0-0.117-0.114-0.235-0.236-0.354c-0.114-0.117-0.235-0.117-0.349-0.235c-0.122,0-0.24,0-0.476,0c-0.354,0-0.589,0-0.825,0.235
		c-0.236,0.118-0.354,0.354-0.471,0.589v4.6h-1.536v-6.488H103.19z M108.496,47.754c0-0.472,0-0.943,0.118-1.414
		c0.118-0.354,0.353-0.707,0.589-1.061c0.236-0.235,0.476-0.472,0.825-0.589c0.236-0.24,0.593-0.24,1.064-0.24
		c0.35,0,0.707,0,0.943,0.118c0.235,0.122,0.471,0.357,0.707,0.593V41.74h1.536v9.316h-1.418v-0.589
		c-0.236,0.235-0.472,0.471-0.825,0.589c-0.236,0.118-0.593,0.235-0.943,0.235c-0.471,0-0.829-0.117-1.064-0.354
		c-0.349-0.117-0.589-0.354-0.825-0.707c-0.236-0.235-0.471-0.589-0.589-1.06c-0.118-0.358-0.118-0.829-0.118-1.301V47.754z
		 M109.914,47.871c0,0.354,0.114,0.59,0.114,0.825c0.122,0.235,0.122,0.476,0.236,0.711c0.122,0.235,0.357,0.354,0.471,0.471
		c0.236,0.118,0.471,0.118,0.707,0.118c0.357,0,0.593,0,0.829-0.235c0.236-0.118,0.354-0.354,0.471-0.589v-2.715
		c-0.118-0.353-0.235-0.471-0.471-0.589c-0.235-0.235-0.471-0.235-0.829-0.235c-0.236,0-0.471,0-0.707,0.118
		c-0.114,0.117-0.35,0.354-0.471,0.471c-0.114,0.235-0.114,0.472-0.236,0.707c0,0.235-0.114,0.589-0.114,0.825V47.871z
		 M119.819,50.468c-0.236,0.235-0.471,0.471-0.829,0.589c-0.236,0.118-0.585,0.235-1.061,0.235c-0.354,0-0.589-0.117-0.825-0.235
		c-0.354,0-0.589-0.235-0.707-0.354c-0.236-0.235-0.354-0.472-0.471-0.825c-0.122-0.235-0.122-0.706-0.122-1.064v-4.245h1.418v4.245
		c0,0.24,0,0.476,0.118,0.594c0,0.118,0.118,0.235,0.235,0.354c0.118,0.117,0.235,0.117,0.354,0.235c0.118,0,0.235,0,0.354,0
		c0.357,0,0.707,0,0.942-0.118c0.236-0.235,0.357-0.353,0.471-0.589v-4.721h1.536v6.488h-1.414V50.468z M126.421,49.289
		c0-0.117,0-0.117,0-0.235c-0.118-0.122-0.118-0.24-0.236-0.24c-0.118-0.117-0.235-0.235-0.471-0.235
		c-0.118-0.117-0.354-0.117-0.707-0.235s-0.711-0.118-0.946-0.235c-0.35-0.118-0.585-0.236-0.707-0.472
		c-0.236-0.118-0.471-0.354-0.585-0.472c-0.122-0.235-0.122-0.471-0.122-0.824c0-0.235,0-0.472,0.122-0.707
		c0.114-0.235,0.349-0.472,0.585-0.589c0.235-0.236,0.471-0.354,0.829-0.476c0.236-0.118,0.585-0.118,1.061-0.118
		c0.354,0,0.707,0,1.061,0.118c0.353,0.122,0.589,0.239,0.829,0.476c0.236,0.117,0.35,0.354,0.471,0.589
		c0.114,0.354,0.236,0.589,0.236,0.824h-1.536c0-0.117,0-0.235,0-0.353c-0.118-0.118-0.118-0.236-0.236-0.236
		c-0.118-0.117-0.235-0.235-0.354-0.235c-0.118-0.118-0.354-0.118-0.471-0.118c-0.236,0-0.354,0-0.589,0.118
		c-0.122,0-0.235,0-0.235,0.118c-0.122,0.117-0.236,0.117-0.236,0.235c-0.122,0.118-0.122,0.235-0.122,0.354
		c0,0.117,0,0.235,0.122,0.235c0,0.118,0.114,0.235,0.236,0.235c0,0.118,0.235,0.236,0.35,0.236
		c0.239,0.117,0.357,0.117,0.711,0.235c0.354,0,0.707,0.118,0.942,0.235c0.354,0.118,0.589,0.236,0.825,0.354
		c0.236,0.236,0.357,0.354,0.471,0.59c0.122,0.235,0.122,0.471,0.122,0.828c0,0.236,0,0.472-0.122,0.707
		c-0.114,0.354-0.349,0.472-0.585,0.707c-0.24,0.118-0.476,0.235-0.829,0.354c-0.354,0.118-0.707,0.235-1.061,0.235
		c-0.475,0-0.825-0.117-1.182-0.235c-0.35-0.118-0.707-0.354-0.943-0.472c-0.235-0.235-0.349-0.471-0.471-0.707
		c-0.118-0.353-0.235-0.589-0.235-0.824h1.414c0,0.235,0.122,0.354,0.236,0.472c0,0.117,0.122,0.235,0.235,0.353
		c0.122,0.118,0.236,0.118,0.472,0.236c0.122,0,0.239,0,0.475,0c0.354,0,0.707-0.118,0.825-0.236
		C126.303,49.761,126.421,49.525,126.421,49.289L126.421,49.289z M131.02,42.919v1.649h1.182v1.064h-1.182v3.656
		c0,0.118,0,0.236,0,0.354c0.118,0.118,0.118,0.235,0.236,0.235l0.118,0.118c0.118,0,0.236,0,0.357,0c0.114,0,0.236,0,0.236,0
		c0.113,0,0.235,0,0.235,0v1.061c-0.122,0.118-0.235,0.118-0.357,0.118c-0.235,0-0.354,0.117-0.589,0.117
		c-0.236,0-0.472-0.117-0.707-0.117c-0.236-0.118-0.354-0.236-0.472-0.354c-0.235-0.118-0.354-0.354-0.354-0.59
		c-0.118-0.235-0.235-0.471-0.235-0.824v-3.774h-1.064v-1.064h1.064v-1.649H131.02z M136.801,45.868c-0.122,0-0.236,0-0.357,0
		c-0.114,0-0.114,0-0.236,0c-0.354,0-0.707,0-0.942,0.118c-0.236,0.235-0.354,0.354-0.471,0.589v4.481h-1.536v-6.488h1.418
		l0.118,0.711c0.118-0.235,0.354-0.472,0.589-0.711c0.236-0.118,0.589-0.118,0.825-0.118c0.122,0,0.236,0,0.357,0
		c0.114,0,0.114,0,0.236,0V45.868z M140.101,48.932l1.414-4.363h1.536l-2.592,7.549c-0.122,0.117-0.122,0.354-0.24,0.589
		c-0.118,0.118-0.236,0.354-0.471,0.472c-0.118,0.239-0.354,0.357-0.589,0.475c-0.236,0.118-0.471,0.118-0.825,0.118
		c-0.118,0-0.235,0-0.354,0c-0.122,0-0.235-0.118-0.357-0.118v-1.182c0.122,0,0.122,0.117,0.235,0.117c0,0,0,0,0.122,0
		c0.118,0,0.354-0.117,0.471-0.117s0.236,0,0.354-0.118s0.118-0.118,0.236-0.235c0.118-0.118,0.118-0.354,0.235-0.472l0.118-0.589
		l-2.243-6.488h1.536L140.101,48.932z M146.82,48.696c0-0.235,0-0.472,0.122-0.707c0-0.235,0.118-0.354,0.236-0.589
		c0.235-0.118,0.354-0.354,0.589-0.472c0.236-0.235,0.472-0.354,0.707-0.589c-0.235-0.118-0.354-0.354-0.471-0.472
		c-0.118-0.235-0.118-0.354-0.236-0.471c-0.118-0.236-0.118-0.354-0.235-0.472c0-0.235,0-0.357,0-0.593c0-0.354,0-0.59,0.118-0.943
		c0.118-0.235,0.236-0.471,0.471-0.706c0.236-0.118,0.472-0.354,0.707-0.354c0.357-0.118,0.707-0.236,1.064-0.236
		c0.236,0,0.585,0.118,0.821,0.236c0.357,0,0.593,0.235,0.711,0.354c0.236,0.235,0.354,0.471,0.471,0.706
		c0.118,0.236,0.118,0.472,0.118,0.707c0,0.236,0,0.354,0,0.594c-0.118,0.235-0.236,0.354-0.354,0.471
		c0,0.236-0.118,0.354-0.354,0.472c-0.122,0.118-0.236,0.235-0.472,0.472l-0.593,0.353l1.653,2.004
		c0.118-0.236,0.236-0.472,0.354-0.707c0-0.236,0.118-0.59,0.118-0.825h1.296c0,0.472-0.114,0.942-0.236,1.414
		c-0.118,0.471-0.354,0.829-0.589,1.183l1.296,1.531h-1.649l-0.589-0.589c-0.235,0.354-0.589,0.471-1.061,0.589
		c-0.357,0.118-0.707,0.235-1.178,0.235c-0.472,0-0.829-0.117-1.183-0.235s-0.707-0.354-0.942-0.472
		c-0.236-0.235-0.471-0.589-0.589-0.824C146.82,49.407,146.82,49.054,146.82,48.696L146.82,48.696z M149.656,49.996
		c0.349,0,0.585,0,0.82-0.118c0.236,0,0.472-0.117,0.593-0.353l-1.885-2.243l-0.239,0.118c-0.118,0.117-0.236,0.235-0.354,0.354
		c-0.118,0.117-0.118,0.235-0.236,0.354c0,0.117-0.118,0.235-0.118,0.354c0,0,0,0.117,0,0.235c0,0.117,0,0.357,0.118,0.476
		c0,0.235,0.118,0.354,0.236,0.471c0.118,0.118,0.354,0.235,0.471,0.354C149.298,49.996,149.42,49.996,149.656,49.996
		L149.656,49.996z M148.945,44.333c0,0.235,0,0.357,0.118,0.593c0.122,0.235,0.235,0.472,0.471,0.707l0.471-0.354
		c0.122-0.118,0.236-0.235,0.357-0.235c0.114-0.118,0.114-0.236,0.236-0.236c0-0.117,0.114-0.239,0.114-0.357
		c0-0.117,0-0.235,0-0.354c0,0,0-0.117,0-0.235s-0.114-0.235-0.236-0.235c0-0.118-0.114-0.236-0.235-0.236
		c-0.114-0.117-0.236-0.117-0.35-0.117c-0.235,0-0.357,0.117-0.471,0.117c-0.122,0-0.236,0.118-0.236,0.236
		c-0.122,0.117-0.239,0.235-0.239,0.354C148.945,44.097,148.945,44.215,148.945,44.333L148.945,44.333z M163.218,49.054h-3.421
		l-0.707,2.003h-1.653l3.303-8.845h1.414l3.421,8.845h-1.649L163.218,49.054z M160.15,47.754h2.596l-1.3-3.657L160.15,47.754z
		 M169.113,49.996c0.118,0,0.354,0,0.471,0c0.118-0.118,0.354-0.118,0.471-0.235c0.118-0.118,0.118-0.235,0.236-0.354
		s0.118-0.354,0.118-0.476h1.414c0,0.357-0.114,0.594-0.236,0.946c-0.114,0.236-0.349,0.472-0.589,0.707
		c-0.236,0.236-0.472,0.354-0.825,0.472c-0.354,0.118-0.707,0.235-1.061,0.235c-0.475,0-0.947-0.117-1.296-0.354
		c-0.358-0.117-0.707-0.354-0.943-0.707c-0.239-0.235-0.475-0.589-0.593-1.06c-0.118-0.358-0.118-0.829-0.118-1.301v-0.117
		c0-0.472,0-0.943,0.118-1.297c0.118-0.471,0.354-0.824,0.593-1.06c0.236-0.354,0.585-0.59,0.943-0.707
		c0.349-0.24,0.821-0.24,1.296-0.24c0.354,0,0.707,0,1.061,0.118c0.353,0.122,0.589,0.357,0.825,0.476
		c0.24,0.235,0.475,0.589,0.589,0.824c0.122,0.354,0.236,0.707,0.236,1.061h-1.414c0-0.235,0-0.354-0.118-0.589
		c0-0.118-0.118-0.235-0.236-0.354c-0.118-0.118-0.235-0.235-0.471-0.235c-0.118-0.118-0.235-0.118-0.471-0.118
		c-0.354,0-0.589,0-0.711,0.118c-0.236,0.117-0.35,0.354-0.471,0.471c-0.114,0.235-0.236,0.472-0.236,0.707
		c-0.114,0.235-0.114,0.472-0.114,0.825v0.117c0,0.354,0,0.59,0.114,0.825c0,0.235,0.122,0.476,0.236,0.711
		c0.122,0.235,0.235,0.354,0.471,0.471C168.523,49.996,168.759,49.996,169.113,49.996L169.113,49.996z M176.893,51.057
		c-0.114,0-0.114-0.118-0.114-0.235c0-0.118-0.122-0.236-0.122-0.354c-0.114,0.117-0.114,0.235-0.235,0.354
		c-0.114,0-0.35,0.117-0.472,0.235c-0.113,0-0.235,0.118-0.471,0.118c-0.118,0-0.353,0.117-0.471,0.117
		c-0.354,0-0.707-0.117-0.942-0.235c-0.236-0.118-0.472-0.235-0.707-0.354c-0.235-0.235-0.357-0.472-0.471-0.707
		c-0.122-0.235-0.122-0.471-0.122-0.707c0-0.357,0-0.711,0.122-0.946c0.114-0.235,0.349-0.472,0.589-0.707
		c0.236-0.118,0.589-0.354,0.943-0.354c0.354-0.118,0.825-0.235,1.296-0.235h0.942v-0.354c0-0.354-0.114-0.707-0.349-0.825
		c-0.122-0.235-0.471-0.354-0.829-0.354c-0.118,0-0.353,0-0.471,0.118c-0.118,0-0.235,0.118-0.354,0.118
		c-0.118,0.117-0.235,0.235-0.235,0.354c0,0.117-0.118,0.235-0.118,0.353h-1.414c0-0.353,0-0.589,0.114-0.824
		c0.122-0.235,0.357-0.472,0.593-0.589c0.236-0.236,0.472-0.354,0.825-0.476c0.354-0.118,0.707-0.118,1.182-0.118
		c0.349,0,0.707,0,0.942,0.118c0.35,0.122,0.585,0.239,0.821,0.357c0.236,0.235,0.476,0.472,0.593,0.707
		c0.118,0.354,0.118,0.707,0.118,1.061v2.949c0,0.589,0.118,1.061,0.354,1.414l0,0H176.893z M175.244,49.996
		c0.118,0,0.357,0,0.471,0c0.122,0,0.235-0.118,0.357-0.235c0.114,0,0.236-0.118,0.35-0.235c0.122-0.118,0.122-0.118,0.235-0.236
		v-1.3h-0.82c-0.593,0-0.947,0.118-1.183,0.354c-0.354,0.118-0.471,0.471-0.471,0.829c0,0.117,0,0.235,0.118,0.354
		c0,0.117,0.118,0.117,0.118,0.235c0.118,0.117,0.235,0.117,0.354,0.235C174.89,49.996,175.126,49.996,175.244,49.996
		L175.244,49.996z M179.371,47.754c0-0.472,0.118-0.943,0.236-1.414c0.118-0.354,0.236-0.707,0.471-1.061
		c0.236-0.235,0.472-0.472,0.829-0.589c0.35-0.24,0.707-0.24,1.057-0.24c0.357,0,0.711,0,0.946,0.118
		c0.354,0.122,0.589,0.357,0.824,0.593V41.74h1.414v9.316h-1.296l-0.118-0.589c-0.235,0.235-0.471,0.471-0.706,0.589
		c-0.354,0.118-0.707,0.235-1.064,0.235c-0.35,0-0.707-0.117-1.057-0.354c-0.357-0.117-0.593-0.354-0.829-0.707
		c-0.235-0.235-0.354-0.589-0.471-1.06c-0.118-0.358-0.236-0.829-0.236-1.301V47.754z M180.907,47.871c0,0.354,0,0.59,0,0.825
		c0.113,0.235,0.235,0.476,0.35,0.711c0.121,0.235,0.235,0.354,0.471,0.471c0.122,0.118,0.357,0.118,0.594,0.118
		c0.354,0,0.707,0,0.824-0.235c0.236-0.118,0.472-0.354,0.589-0.589v-2.715c-0.117-0.353-0.353-0.471-0.589-0.589
		c-0.235-0.235-0.471-0.235-0.824-0.235c-0.236,0-0.472,0-0.594,0.118c-0.235,0.117-0.35,0.354-0.471,0.471
		c-0.114,0.235-0.236,0.472-0.236,0.707c-0.113,0.235-0.113,0.589-0.113,0.825V47.871z M189.634,51.292
		c-0.471,0-0.946-0.117-1.3-0.354c-0.472-0.117-0.707-0.354-1.061-0.589c-0.235-0.354-0.472-0.707-0.589-1.061
		c-0.118-0.357-0.236-0.828-0.236-1.3v-0.235c0-0.472,0.118-0.943,0.236-1.414c0.117-0.354,0.354-0.707,0.707-1.061
		c0.235-0.235,0.471-0.472,0.942-0.589c0.354-0.24,0.707-0.24,1.064-0.24c0.585,0,0.942,0,1.292,0.24
		c0.357,0.117,0.711,0.354,0.946,0.589c0.235,0.354,0.354,0.707,0.472,1.061c0.117,0.354,0.117,0.824,0.117,1.296v0.707h-4.245
		c0,0.235,0,0.471,0.118,0.589c0.117,0.24,0.235,0.476,0.354,0.594c0.117,0.235,0.354,0.353,0.589,0.353
		c0.122,0.118,0.357,0.118,0.707,0.118c0.357,0,0.593,0,0.942-0.118c0.239-0.235,0.476-0.353,0.711-0.589l0.707,0.707
		c0,0.118-0.236,0.354-0.354,0.472c-0.118,0.117-0.354,0.235-0.472,0.354c-0.235,0.117-0.471,0.235-0.828,0.354
		C190.219,51.175,189.983,51.292,189.634,51.292L189.634,51.292z M189.398,45.633c-0.357,0-0.711,0.118-0.946,0.354
		c-0.236,0.354-0.354,0.707-0.472,1.178h2.832v-0.117c0-0.118,0-0.354-0.122-0.472c0-0.235-0.114-0.354-0.235-0.471
		c-0.114-0.236-0.236-0.354-0.35-0.354C189.87,45.633,189.748,45.633,189.398,45.633L189.398,45.633z M194.818,44.568v0.593
		c0.235-0.235,0.471-0.354,0.829-0.593c0.353-0.118,0.706-0.118,1.06-0.118c0.472,0,0.825,0,1.183,0.24
		c0.235,0.117,0.471,0.354,0.707,0.707c0.235-0.354,0.471-0.59,0.82-0.707c0.357-0.24,0.711-0.24,1.183-0.24
		c0.354,0,0.589,0,0.942,0.118c0.235,0,0.476,0.239,0.589,0.357c0.236,0.235,0.357,0.472,0.472,0.825
		c0.122,0.235,0.122,0.706,0.122,1.06v4.246h-1.418v-4.246c0-0.235,0-0.471-0.118-0.589c0-0.117-0.117-0.235-0.235-0.354
		c-0.118-0.117-0.235-0.117-0.354-0.235c-0.118,0-0.354,0-0.472,0c-0.354,0-0.589,0.118-0.824,0.235
		c-0.236,0.236-0.357,0.472-0.472,0.707c0,0,0,0,0,0.118l0,0v4.363h-1.536v-4.246c0-0.235,0-0.354,0-0.589
		c-0.117-0.117-0.117-0.235-0.235-0.354c-0.117-0.117-0.235-0.117-0.354-0.235c-0.235,0-0.354,0-0.589,0s-0.589,0-0.707,0.118
		c-0.235,0.235-0.357,0.354-0.471,0.589v4.717h-1.536v-6.488H194.818z M205.905,51.057h-1.531v-6.488h1.531V51.057z M204.256,42.801
		c0-0.235,0.118-0.354,0.235-0.589c0.118-0.118,0.354-0.235,0.59-0.235c0.354,0,0.471,0.117,0.707,0.235
		c0.117,0.235,0.117,0.354,0.117,0.589c0,0.236,0,0.472-0.117,0.589c-0.236,0.118-0.354,0.236-0.707,0.236
		c-0.236,0-0.472-0.118-0.59-0.236C204.374,43.272,204.256,43.037,204.256,42.801L204.256,42.801z M210.151,49.996
		c0.235,0,0.354,0,0.471,0c0.236-0.118,0.357-0.118,0.472-0.235c0.122-0.118,0.235-0.235,0.235-0.354
		c0.122-0.118,0.122-0.354,0.122-0.476h1.414c0,0.357-0.122,0.594-0.235,0.946c-0.122,0.236-0.358,0.472-0.594,0.707
		c-0.235,0.236-0.471,0.354-0.82,0.472c-0.357,0.118-0.711,0.235-1.064,0.235c-0.472,0-0.943-0.117-1.296-0.354
		c-0.354-0.117-0.712-0.354-0.947-0.707c-0.235-0.235-0.471-0.589-0.585-1.06c-0.122-0.358-0.122-0.829-0.122-1.301v-0.117
		c0-0.472,0-0.943,0.122-1.297c0.114-0.471,0.35-0.824,0.585-1.06c0.235-0.354,0.594-0.59,0.947-0.707
		c0.353-0.24,0.824-0.24,1.296-0.24c0.471,0,0.828,0,1.178,0.118c0.236,0.122,0.594,0.357,0.829,0.476
		c0.235,0.235,0.35,0.589,0.472,0.824c0.113,0.354,0.235,0.707,0.235,1.061h-1.414c0-0.235,0-0.354-0.122-0.589
		c0-0.118-0.113-0.235-0.235-0.354c-0.114-0.118-0.235-0.235-0.354-0.235c-0.235-0.118-0.354-0.118-0.589-0.118
		c-0.236,0-0.472,0-0.707,0.118c-0.236,0.117-0.354,0.354-0.472,0.471c-0.117,0.235-0.235,0.472-0.235,0.707
		s-0.118,0.472-0.118,0.825v0.117c0,0.354,0.118,0.59,0.118,0.825s0.118,0.476,0.235,0.711c0.118,0.235,0.235,0.354,0.472,0.471
		C209.68,49.996,209.915,49.996,210.151,49.996L210.151,49.996z M217.7,49.289c0-0.117,0-0.117,0-0.235
		c-0.118-0.122-0.118-0.24-0.236-0.24c-0.117-0.117-0.235-0.235-0.471-0.235c-0.122-0.117-0.357-0.117-0.707-0.235
		c-0.357-0.118-0.707-0.118-0.942-0.235c-0.358-0.118-0.594-0.236-0.712-0.472c-0.235-0.118-0.471-0.354-0.589-0.472
		c-0.117-0.235-0.117-0.471-0.117-0.824c0-0.235,0-0.472,0.117-0.707c0.118-0.235,0.354-0.472,0.589-0.589
		c0.236-0.236,0.472-0.354,0.825-0.476c0.235-0.118,0.593-0.118,1.064-0.118c0.35,0,0.707,0,1.061,0.118
		c0.354,0.122,0.589,0.239,0.825,0.476c0.235,0.117,0.353,0.354,0.471,0.589c0.118,0.354,0.235,0.589,0.235,0.824h-1.531
		c0-0.117,0-0.235,0-0.353c-0.118-0.118-0.118-0.236-0.235-0.236c-0.118-0.117-0.24-0.235-0.354-0.235
		c-0.122-0.118-0.357-0.118-0.472-0.118c-0.235,0-0.357,0-0.593,0.118c-0.114,0-0.236,0-0.35,0.118c0,0.117-0.122,0.117-0.122,0.235
		c-0.113,0.118-0.113,0.235-0.113,0.354c0,0.117,0,0.235,0.113,0.235c0,0.118,0.122,0.235,0.235,0.235
		c0,0.118,0.236,0.236,0.357,0.236c0.236,0.117,0.35,0.117,0.707,0.235c0.35,0,0.707,0.118,0.943,0.235
		c0.354,0.118,0.589,0.236,0.824,0.354c0.235,0.236,0.354,0.354,0.472,0.59c0.117,0.235,0.117,0.471,0.117,0.828
		c0,0.236,0,0.472-0.117,0.707c-0.118,0.354-0.354,0.472-0.589,0.707c-0.236,0.118-0.472,0.235-0.825,0.354
		s-0.711,0.235-1.061,0.235c-0.472,0-0.942-0.117-1.178-0.235c-0.358-0.118-0.712-0.354-0.947-0.472
		c-0.235-0.235-0.354-0.471-0.471-0.707c-0.118-0.353-0.236-0.589-0.236-0.824h1.414c0,0.235,0.118,0.354,0.118,0.472
		c0.122,0.117,0.235,0.235,0.357,0.353c0.113,0.118,0.235,0.118,0.471,0.236c0.114,0,0.236,0,0.472,0
		c0.35,0,0.707-0.118,0.825-0.236C217.582,49.761,217.7,49.525,217.7,49.289L217.7,49.289z M228.669,49.054h-3.421l-0.706,2.003
		h-1.654l3.421-8.845h1.296l3.421,8.845h-1.649L228.669,49.054z M225.598,47.754h2.597l-1.297-3.657L225.598,47.754z"/>
	<path d="M232.911,44.568l0.122,0.593c0.235-0.235,0.471-0.354,0.82-0.593c0.235-0.118,0.593-0.118,1.064-0.118
		c0.354,0,0.707,0,1.061,0.24c0.354,0.117,0.589,0.354,0.707,0.707c0.235-0.354,0.471-0.59,0.824-0.707
		c0.357-0.24,0.707-0.24,1.179-0.24c0.357,0,0.711,0,0.946,0.118c0.235,0,0.472,0.239,0.707,0.357
		c0.118,0.235,0.354,0.472,0.354,0.825c0.118,0.235,0.235,0.706,0.235,1.06v4.246h-1.531v-4.246c0-0.235,0-0.471,0-0.589
		c-0.118-0.117-0.24-0.235-0.354-0.354c0-0.117-0.122-0.117-0.357-0.235c-0.114,0-0.236,0-0.472,0c-0.35,0-0.585,0.118-0.82,0.235
		c-0.24,0.236-0.357,0.472-0.476,0.707c0,0,0,0,0,0.118l0,0v4.363h-1.414v-4.246c0-0.235,0-0.354-0.117-0.589
		c0-0.117-0.118-0.235-0.236-0.354c-0.117-0.117-0.235-0.117-0.357-0.235c-0.113,0-0.35,0-0.471,0c-0.35,0-0.586,0-0.821,0.118
		c-0.235,0.235-0.357,0.354-0.471,0.589v4.717h-1.418v-6.488H232.911z M246.358,51.057c0,0-0.121-0.118-0.121-0.235
		c0-0.118,0-0.236,0-0.354c-0.114,0.117-0.236,0.235-0.354,0.354c-0.118,0-0.236,0.117-0.354,0.235
		c-0.236,0-0.354,0.118-0.472,0.118c-0.235,0-0.354,0.117-0.589,0.117c-0.354,0-0.589-0.117-0.947-0.235
		c-0.235-0.118-0.471-0.235-0.706-0.354c-0.114-0.235-0.35-0.472-0.472-0.707c-0.113-0.235-0.113-0.471-0.113-0.707
		c0-0.357,0-0.711,0.235-0.946c0.113-0.235,0.235-0.472,0.585-0.707c0.235-0.118,0.471-0.354,0.946-0.354
		c0.354-0.118,0.707-0.235,1.179-0.235h0.946v-0.354c0-0.354-0.122-0.707-0.239-0.825c-0.236-0.235-0.472-0.354-0.943-0.354
		c-0.117,0-0.235,0-0.471,0.118c-0.118,0-0.236,0.118-0.354,0.118c-0.118,0.117-0.118,0.235-0.235,0.354c0,0.117,0,0.235,0,0.353
		h-1.536c0-0.353,0.122-0.589,0.235-0.824c0.122-0.235,0.236-0.472,0.472-0.589c0.235-0.236,0.593-0.354,0.946-0.476
		c0.235-0.118,0.707-0.118,1.061-0.118s0.707,0,1.064,0.118c0.235,0.122,0.585,0.239,0.821,0.357
		c0.239,0.235,0.357,0.472,0.475,0.707c0.118,0.354,0.236,0.707,0.236,1.061v2.949c0,0.589,0,1.061,0.235,1.414l0,0H246.358z
		 M244.705,49.996c0.235,0,0.354,0,0.472,0c0.235,0,0.354-0.118,0.471-0.235c0.118,0,0.236-0.118,0.236-0.235
		c0.117-0.118,0.239-0.118,0.239-0.236v-1.3h-0.829c-0.471,0-0.942,0.118-1.178,0.354c-0.235,0.118-0.472,0.471-0.472,0.829
		c0,0.117,0.118,0.235,0.118,0.354c0,0.117,0.118,0.117,0.235,0.235c0,0.117,0.118,0.117,0.235,0.235
		C244.47,49.996,244.587,49.996,244.705,49.996L244.705,49.996z M250.718,51.057h-1.413V41.74h1.413V51.057z M252.136,47.754
		c0-0.472,0-0.943,0.118-1.414c0.118-0.354,0.354-0.707,0.589-1.061c0.236-0.235,0.472-0.472,0.825-0.589
		c0.354-0.24,0.707-0.24,1.061-0.24c0.353,0,0.706,0,1.06,0.118c0.24,0.122,0.476,0.357,0.711,0.593l0.118-0.593h1.296v6.37
		c0,0.472-0.117,0.825-0.235,1.179s-0.354,0.589-0.589,0.824c-0.236,0.236-0.59,0.476-0.943,0.594
		c-0.357,0.117-0.828,0.117-1.182,0.117c-0.235,0-0.472,0-0.589,0c-0.236,0-0.472-0.117-0.707-0.235
		c-0.235,0-0.472-0.122-0.707-0.239c-0.118-0.236-0.354-0.354-0.472-0.59l0.707-0.824c0.236,0.235,0.472,0.471,0.707,0.589
		c0.354,0.118,0.589,0.235,0.942,0.235c0.472,0,0.825-0.235,1.183-0.471c0.235-0.235,0.354-0.589,0.354-1.179v-0.471
		c-0.118,0.235-0.354,0.471-0.711,0.589c-0.236,0.118-0.59,0.235-0.942,0.235c-0.354,0-0.707-0.117-1.061-0.354
		c-0.354-0.117-0.589-0.354-0.825-0.707c-0.235-0.235-0.471-0.589-0.589-1.06c-0.118-0.358-0.118-0.829-0.118-1.301V47.754z
		 M253.55,47.871c0,0.354,0,0.59,0.118,0.825c0,0.235,0.117,0.476,0.235,0.711s0.354,0.354,0.472,0.471
		c0.235,0.118,0.471,0.118,0.706,0.118c0.354,0,0.59,0,0.825-0.235c0.239-0.118,0.357-0.235,0.476-0.472V46.34
		c-0.118-0.235-0.236-0.354-0.476-0.472c-0.235-0.235-0.472-0.235-0.825-0.235c-0.235,0-0.471,0-0.706,0.118
		c-0.118,0.117-0.354,0.354-0.472,0.471c-0.118,0.235-0.118,0.472-0.235,0.707c-0.118,0.235-0.118,0.589-0.118,0.825V47.871z
		 M263.337,51.057c0,0,0-0.118-0.117-0.235c0-0.118,0-0.236,0-0.354c-0.118,0.117-0.236,0.235-0.354,0.354
		c-0.118,0-0.236,0.117-0.354,0.235c-0.118,0-0.354,0.118-0.472,0.118c-0.235,0-0.354,0.117-0.589,0.117
		c-0.354,0-0.589-0.117-0.825-0.235c-0.357-0.118-0.593-0.235-0.828-0.354c-0.118-0.235-0.236-0.472-0.354-0.707
		c-0.118-0.235-0.236-0.471-0.236-0.707c0-0.357,0.118-0.711,0.236-0.946c0.117-0.235,0.354-0.472,0.589-0.707
		c0.235-0.118,0.593-0.354,0.946-0.354c0.354-0.118,0.825-0.235,1.296-0.235h0.825v-0.354c0-0.354,0-0.707-0.235-0.825
		c-0.236-0.235-0.472-0.354-0.825-0.354c-0.235,0-0.354,0-0.471,0.118c-0.236,0-0.354,0.118-0.354,0.118
		c-0.118,0.117-0.236,0.235-0.236,0.354c-0.117,0.117-0.117,0.235-0.117,0.353h-1.536c0-0.353,0.118-0.589,0.235-0.824
		c0.118-0.235,0.354-0.472,0.59-0.589c0.239-0.236,0.475-0.354,0.828-0.476c0.354-0.118,0.707-0.118,1.061-0.118
		s0.707,0,1.061,0.118c0.354,0.122,0.589,0.239,0.825,0.357c0.235,0.235,0.354,0.472,0.471,0.707
		c0.118,0.354,0.236,0.707,0.236,1.061v2.949c0,0.589,0.121,1.061,0.239,1.414l0,0H263.337z M261.806,49.996
		c0.117,0,0.235,0,0.471,0c0.118,0,0.236-0.118,0.354-0.235c0.118,0,0.236-0.118,0.354-0.235c0-0.118,0.118-0.118,0.118-0.236v-1.3
		h-0.707c-0.589,0-0.942,0.118-1.296,0.354c-0.235,0.118-0.354,0.471-0.354,0.829c0,0.117,0,0.235,0,0.354
		c0.118,0.117,0.118,0.117,0.235,0.235c0.118,0.117,0.236,0.117,0.354,0.235C261.452,49.996,261.57,49.996,261.806,49.996
		L261.806,49.996z M267.583,44.568v0.593c0.235-0.235,0.471-0.354,0.824-0.593c0.354-0.118,0.711-0.118,1.064-0.118
		c0.472,0,0.825,0,1.179,0.24c0.235,0.117,0.472,0.354,0.707,0.707c0.235-0.354,0.471-0.59,0.824-0.707
		c0.354-0.24,0.707-0.24,1.179-0.24c0.357,0,0.593,0,0.946,0.118c0.235,0,0.472,0.239,0.589,0.357
		c0.236,0.235,0.354,0.472,0.472,0.825c0.118,0.235,0.118,0.706,0.118,1.06v4.246h-1.414v-4.246c0-0.235,0-0.471-0.118-0.589
		c0-0.117-0.118-0.235-0.235-0.354c-0.118-0.117-0.235-0.117-0.357-0.235c-0.118,0-0.354,0-0.472,0
		c-0.354,0-0.589,0.118-0.824,0.235c-0.236,0.236-0.354,0.472-0.472,0.707c0,0,0,0,0,0.118l0,0v4.363h-1.531v-4.246
		c0-0.235,0-0.354,0-0.589c-0.118-0.117-0.118-0.235-0.236-0.354c-0.117-0.117-0.235-0.117-0.354-0.235c-0.235,0-0.354,0-0.593,0
		c-0.235,0-0.589,0-0.707,0.118c-0.235,0.235-0.354,0.354-0.472,0.589v4.717h-1.531v-6.488H267.583z M281.026,51.057
		c-0.117,0-0.117-0.118-0.117-0.235c0-0.118-0.118-0.236-0.118-0.354c-0.118,0.117-0.235,0.235-0.354,0.354
		c-0.118,0-0.235,0.117-0.354,0.235c-0.118,0-0.235,0.118-0.472,0.118c-0.117,0-0.354,0.117-0.471,0.117
		c-0.354,0-0.707-0.117-0.942-0.235c-0.357-0.118-0.476-0.235-0.711-0.354c-0.236-0.235-0.354-0.472-0.472-0.707
		s-0.235-0.471-0.235-0.707c0-0.357,0.117-0.711,0.235-0.946s0.354-0.472,0.589-0.707c0.236-0.118,0.594-0.354,0.947-0.354
		c0.354-0.118,0.824-0.235,1.296-0.235h0.942v-0.354c0-0.354-0.118-0.707-0.354-0.825c-0.118-0.235-0.472-0.354-0.825-0.354
		c-0.117,0-0.354,0-0.471,0.118c-0.118,0-0.235,0.118-0.354,0.118c-0.118,0.117-0.235,0.235-0.235,0.354
		c-0.118,0.117-0.118,0.235-0.118,0.353h-1.418c0-0.353,0-0.589,0.118-0.824c0.117-0.235,0.354-0.472,0.589-0.589
		c0.235-0.236,0.476-0.354,0.829-0.476c0.354-0.118,0.706-0.118,1.178-0.118c0.354,0,0.707,0,0.942,0.118
		c0.354,0.122,0.59,0.239,0.825,0.357c0.235,0.235,0.472,0.472,0.589,0.707c0.118,0.354,0.118,0.707,0.118,1.061v2.949
		c0,0.589,0.117,1.061,0.239,1.414l0,0H281.026z M279.377,49.996c0.118,0,0.354,0,0.472,0c0.117,0,0.235-0.118,0.354-0.235
		c0.117,0,0.235-0.118,0.354-0.235c0.117-0.118,0.117-0.118,0.235-0.236v-1.3h-0.825c-0.589,0-0.942,0.118-1.178,0.354
		c-0.354,0.118-0.472,0.471-0.472,0.829c0,0.117,0,0.235,0.118,0.354c0,0.117,0.118,0.117,0.118,0.235
		c0.117,0.117,0.235,0.117,0.354,0.235C279.023,49.996,279.142,49.996,279.377,49.996L279.377,49.996z M285.626,42.919v1.649h1.182
		v1.064h-1.182v3.656c0,0.118,0,0.236,0.117,0.354c0,0.118,0,0.235,0.118,0.235c0,0,0.118,0.118,0.235,0.118c0,0,0.118,0,0.236,0
		c0.117,0,0.235,0,0.354,0h0.121v1.061c-0.121,0.118-0.239,0.118-0.357,0.118c-0.117,0-0.354,0.117-0.589,0.117
		s-0.472-0.117-0.707-0.117c-0.118-0.118-0.354-0.236-0.472-0.354c-0.117-0.118-0.353-0.354-0.353-0.59
		c-0.118-0.235-0.118-0.471-0.118-0.824v-3.774h-1.178v-1.064h1.178v-1.649H285.626z M290.813,51.292
		c-0.471,0-0.942-0.117-1.296-0.354c-0.354-0.117-0.707-0.354-0.942-0.589c-0.354-0.354-0.471-0.707-0.707-1.061
		c-0.117-0.357-0.117-0.828-0.117-1.3v-0.235c0-0.472,0-0.943,0.235-1.414c0.118-0.354,0.354-0.707,0.589-1.061
		c0.235-0.235,0.589-0.472,0.942-0.589c0.354-0.24,0.707-0.24,1.179-0.24c0.476,0,0.828,0,1.182,0.24
		c0.354,0.117,0.707,0.354,0.943,0.589c0.235,0.354,0.354,0.707,0.471,1.061c0.118,0.354,0.236,0.824,0.236,1.296v0.707h-4.364
		c0,0.235,0.118,0.471,0.236,0.589c0,0.24,0.117,0.476,0.354,0.594c0.117,0.235,0.235,0.353,0.471,0.353
		c0.235,0.118,0.472,0.118,0.707,0.118c0.357,0,0.711,0,0.946-0.118c0.236-0.235,0.472-0.353,0.707-0.589l0.825,0.707
		c-0.118,0.118-0.235,0.354-0.354,0.472c-0.235,0.117-0.354,0.235-0.589,0.354c-0.236,0.117-0.472,0.235-0.707,0.354
		C291.524,51.175,291.172,51.292,290.813,51.292L290.813,51.292z M290.696,45.633c-0.472,0-0.707,0.118-1.061,0.354
		c-0.235,0.354-0.354,0.707-0.472,1.178h2.832v-0.117c0-0.118,0-0.354,0-0.472c-0.118-0.235-0.235-0.354-0.235-0.471
		c-0.118-0.236-0.354-0.354-0.472-0.354C291.172,45.633,290.932,45.633,290.696,45.633L290.696,45.633z"/>
</g>
</svg>
