<?xml version="1.0" encoding="utf-8"?>
<!-- Generator: Adobe Illustrator 16.0.0, SVG Export Plug-In . SVG Version: 6.00 Build 0)  -->
<!DOCTYPE svg PUBLIC "-//W3C//DTD SVG 1.1//EN" "http://www.w3.org/Graphics/SVG/1.1/DTD/svg11.dtd">
<svg version="1.1" id="Layer_1" xmlns="http://www.w3.org/2000/svg" xmlns:xlink="http://www.w3.org/1999/xlink" x="0px" y="0px"
	 width="208px" height="103px" viewBox="0 0 208 103" enable-background="new 0 0 208 103" xml:space="preserve">
<g>
	<polygon fill-rule="evenodd" clip-rule="evenodd" fill="#FF0000" points="13.701,91.243 45.827,21.201 52.797,27.817 61.302,9.274 
		56.932,8.444 70.396,-0.174 69.803,13.999 65.672,11.634 53.27,38.446 47.479,30.771 20.195,91.243 	"/>
	<rect x="0.59" y="31.833" fill-rule="evenodd" clip-rule="evenodd" fill="#7A2776" width="94.49" height="1.77"/>
	<rect x="0.59" y="78.251" fill-rule="evenodd" clip-rule="evenodd" fill="#7A2776" width="94.49" height="1.77"/>
	<rect x="0.59" y="83.447" fill-rule="evenodd" clip-rule="evenodd" fill="#7A2776" width="94.49" height="1.774"/>
	<path fill-rule="evenodd" clip-rule="evenodd" fill="#7A2776" d="M0,71.992v-0.948h1.062c0.944,0,1.77-0.118,2.242-0.472
		c0.476-0.236,0.83-0.708,1.066-1.18c0.236-0.354,0.236-1.416,0.236-3.19V44.118c0-1.773-0.118-2.836-0.236-3.308
		c-0.236-0.354-0.59-0.708-1.066-1.063c-0.59-0.358-1.298-0.476-2.242-0.476H0v-0.944h14.763c3.898,0,7.088,0.59,9.448,1.656
		c2.955,1.416,5.196,3.422,6.735,6.141c1.534,2.718,2.242,5.668,2.242,9.094c0,2.36-0.354,4.606-1.18,6.613
		c-0.708,1.892-1.652,3.544-2.836,4.842c-1.18,1.303-2.596,2.364-4.134,3.19c-1.534,0.708-3.422,1.298-5.668,1.774
		c-0.944,0.235-2.482,0.354-4.606,0.354H0z M12.521,40.221v26.217c0,1.421,0.118,2.247,0.236,2.482
		c0.118,0.354,0.354,0.59,0.59,0.826c0.472,0.236,1.063,0.354,1.888,0.354c2.718,0,4.842-0.944,6.263-2.833
		c2.006-2.6,2.95-6.498,2.95-11.813c0-4.37-0.708-7.797-2.006-10.393c-1.062-2.01-2.482-3.309-4.134-4.017
		C17.245,40.456,15.235,40.221,12.521,40.221L12.521,40.221z M58.82,54.157c3.19,0.708,5.433,1.652,6.617,2.714
		c1.888,1.42,2.714,3.427,2.714,5.791c0,2.478-0.944,4.605-2.954,6.258c-2.478,2.006-6.022,3.072-10.629,3.072H37.794v-0.948
		c1.538,0,2.6-0.118,3.072-0.354c0.59-0.354,0.944-0.708,1.18-1.181c0.236-0.472,0.354-1.651,0.354-3.426V44.236
		c0-1.774-0.118-2.954-0.354-3.426c-0.236-0.473-0.59-0.826-1.18-1.181c-0.472-0.24-1.534-0.357-3.072-0.357v-0.944h15.829
		c3.78,0,6.376,0.354,8.033,1.062c1.534,0.713,2.832,1.774,3.658,3.072c0.948,1.421,1.42,2.837,1.42,4.371
		c0,1.656-0.59,3.072-1.774,4.252C63.78,52.383,61.774,53.449,58.82,54.157L58.82,54.157z M49.961,53.449
		c2.364,0,4.016-0.236,5.196-0.83c1.062-0.472,1.892-1.18,2.482-2.124c0.59-0.944,0.944-2.242,0.944-3.662
		c0-1.534-0.354-2.715-0.944-3.663c-0.472-0.943-1.42-1.651-2.482-2.241c-1.062-0.473-2.714-0.708-5.196-0.708V53.449z
		 M49.961,55.337v10.747v1.302c0,0.826,0.236,1.534,0.708,2.007c0.472,0.472,1.062,0.708,1.892,0.708
		c1.298,0,2.478-0.354,3.54-0.944c1.066-0.59,1.893-1.416,2.482-2.482c0.59-1.18,0.826-2.36,0.826-3.776
		c0-1.538-0.236-2.954-0.944-4.134c-0.59-1.303-1.534-2.128-2.836-2.601C54.332,55.573,52.443,55.337,49.961,55.337L49.961,55.337z
		 M94.845,37.62l0.235,11.223h-1.062c-0.473-2.836-1.534-5.082-3.427-6.734c-1.888-1.771-3.78-2.597-5.904-2.597
		c-1.656,0-3.072,0.473-4.016,1.299c-0.944,0.943-1.416,2.006-1.416,3.19c0,0.708,0.118,1.298,0.472,1.888
		c0.472,0.826,1.298,1.534,2.36,2.364c0.708,0.472,2.482,1.534,5.197,2.832c3.897,2.01,6.498,3.78,7.796,5.433
		c1.42,1.773,2.011,3.78,2.011,5.904c0,2.836-1.066,5.2-3.19,7.206c-2.128,2.011-4.843,3.072-8.15,3.072
		c-1.063,0-2.125-0.118-2.955-0.354c-0.944-0.236-2.124-0.591-3.54-1.185c-0.712-0.354-1.42-0.472-1.892-0.472
		c-0.472,0-0.826,0.118-1.298,0.472c-0.472,0.358-0.944,0.83-1.18,1.538h-0.831V60.062h0.831c0.708,3.544,2.124,6.259,4.134,8.15
		c2.006,1.771,4.252,2.714,6.612,2.714c1.77,0,3.19-0.472,4.252-1.416c1.063-1.062,1.652-2.242,1.652-3.544
		c0-0.826-0.236-1.534-0.59-2.242c-0.473-0.826-1.063-1.538-1.889-2.128c-0.825-0.708-2.364-1.534-4.488-2.597
		c-2.955-1.538-5.196-2.836-6.499-3.897c-1.298-1.063-2.242-2.242-2.95-3.545c-0.708-1.298-1.066-2.714-1.066-4.252
		c0-2.714,0.948-4.96,2.836-6.849c2.01-1.892,4.37-2.836,7.325-2.836c1.062,0,2.124,0.118,3.068,0.354
		c0.83,0.236,1.773,0.591,2.836,1.181c1.062,0.476,1.892,0.712,2.246,0.712c0.472,0,0.826-0.118,1.063-0.354
		c0.235-0.239,0.472-0.947,0.59-1.892H94.845z"/>
	<polygon fill-rule="evenodd" clip-rule="evenodd" fill="#FF0000" points="45.827,21.201 52.797,27.817 61.302,9.274 56.932,8.444 
		70.396,-0.174 69.803,13.999 65.672,11.634 53.27,38.446 47.479,30.771 	"/>
	<path fill="#7A2776" d="M0.708,102.938v-8.387H3.54c0.594,0,1.066,0,1.42,0.118c0.472,0.118,0.944,0.236,1.298,0.59
		c0.354,0.354,0.708,0.826,0.944,1.416c0.236,0.59,0.354,1.303,0.354,2.011c0,0.59-0.118,1.18-0.236,1.651
		c-0.236,0.473-0.354,0.944-0.59,1.299c-0.236,0.235-0.472,0.59-0.708,0.712c-0.354,0.235-0.708,0.354-1.062,0.472
		s-0.826,0.118-1.302,0.118H0.708z M1.77,101.99h1.77c0.476,0,0.948-0.118,1.302-0.236c0.236-0.117,0.472-0.235,0.708-0.354
		c0.236-0.354,0.472-0.708,0.59-1.063c0.118-0.472,0.236-1.062,0.236-1.651c0-0.948-0.118-1.538-0.472-2.011
		c-0.236-0.472-0.59-0.826-0.944-1.062c-0.354-0.118-0.826-0.118-1.42-0.118H1.77V101.99z M13.347,102.938v-8.387h6.022v0.944h-4.96
		v2.6h4.606v0.944h-4.606v2.95h5.078v0.948H13.347z M25.392,102.938v-8.387h1.066v3.427h4.37v-3.427h1.062v8.387h-1.062v-4.017
		h-4.37v4.017H25.392z M38.03,102.938v-8.387h3.663c0.826,0,1.298,0,1.774,0.236c0.354,0.118,0.59,0.354,0.826,0.708
		c0.236,0.472,0.354,0.826,0.354,1.298c0,0.59-0.118,1.066-0.59,1.538c-0.354,0.354-0.948,0.708-1.656,0.708
		c0.236,0.236,0.472,0.354,0.59,0.472c0.354,0.354,0.594,0.709,0.948,1.181l1.416,2.246h-1.416l-1.066-1.774
		c-0.354-0.472-0.59-0.826-0.826-1.18c-0.118-0.236-0.354-0.473-0.472-0.59c-0.236,0-0.354-0.118-0.59-0.118
		c-0.118-0.118-0.236-0.118-0.59-0.118h-1.18v3.78H38.03z M39.215,98.214h2.242c0.59,0,0.944,0,1.18-0.118
		c0.354-0.117,0.59-0.357,0.708-0.594c0.122-0.118,0.24-0.472,0.24-0.708c0-0.354-0.24-0.708-0.476-0.944
		c-0.236-0.235-0.708-0.472-1.298-0.472h-2.596V98.214z M49.843,102.938l3.19-8.387h1.18l3.308,8.387h-1.184l-0.944-2.601H51.85
		l-0.826,2.601H49.843z M52.208,99.512h2.832l-0.944-2.363c-0.236-0.708-0.354-1.299-0.59-1.771
		c-0.118,0.59-0.236,1.063-0.354,1.652L52.208,99.512z M62.718,102.938v-8.387h2.836c0.708,0,1.18,0,1.534,0.118
		c0.472,0.118,0.826,0.236,1.18,0.59c0.472,0.354,0.826,0.826,0.944,1.416c0.236,0.59,0.354,1.303,0.354,2.011
		c0,0.59,0,1.18-0.236,1.651c-0.118,0.473-0.354,0.944-0.472,1.299c-0.236,0.235-0.59,0.59-0.826,0.712
		c-0.236,0.235-0.59,0.354-0.944,0.472s-0.826,0.118-1.298,0.118H62.718z M63.898,101.99h1.656c0.59,0,1.062-0.118,1.298-0.236
		c0.354-0.117,0.59-0.235,0.826-0.354c0.236-0.354,0.472-0.708,0.59-1.063c0.118-0.472,0.236-1.062,0.236-1.651
		c0-0.948-0.236-1.538-0.472-2.011c-0.236-0.472-0.59-0.826-1.062-1.062c-0.236-0.118-0.708-0.118-1.417-0.118h-1.656V101.99z
		 M80.79,94.552h1.18v4.843c0,0.826-0.118,1.534-0.354,2.006c-0.118,0.472-0.472,0.948-0.944,1.184
		c-0.472,0.354-1.18,0.473-2.006,0.473c-0.712,0-1.42-0.118-1.893-0.354c-0.472-0.354-0.826-0.712-1.062-1.184
		c-0.118-0.59-0.236-1.298-0.236-2.124v-4.843h1.062v4.843c0,0.708,0.118,1.298,0.236,1.534c0.118,0.354,0.354,0.708,0.708,0.825
		c0.236,0.236,0.708,0.354,1.185,0.354c0.708,0,1.298-0.236,1.652-0.59c0.354-0.354,0.472-1.063,0.472-2.124V94.552z
		 M88.114,102.938v-8.387h1.062l4.37,6.612v-6.612h1.063v8.387h-1.18l-4.253-6.616v6.616H88.114z"/>
	<path fill="#FF0000" d="M103.349,45.417v-0.473h0.473c0.472,0,0.708,0,0.943-0.118c0.236-0.117,0.354-0.354,0.477-0.59
		c0.118-0.118,0.118-0.594,0.118-1.302v-9.566c0-0.826,0-1.298-0.118-1.417c0-0.236-0.24-0.354-0.477-0.472
		c-0.235-0.236-0.59-0.236-0.943-0.236h-0.473V30.89h6.495c1.773,0,3.072,0.236,4.134,0.708c1.302,0.59,2.246,1.416,2.954,2.596
		c0.708,1.185,1.063,2.482,1.063,4.017c0,0.944-0.236,1.893-0.59,2.719c-0.236,0.943-0.708,1.651-1.181,2.124
		c-0.59,0.59-1.184,1.065-1.892,1.42c-0.591,0.354-1.416,0.59-2.479,0.826c-0.354,0-1.063,0.118-2.01,0.118H103.349z
		 M108.899,31.716v11.219c0,0.59,0,1.066,0,1.184c0.118,0.118,0.236,0.236,0.354,0.236c0.118,0.118,0.473,0.236,0.826,0.236
		c1.185,0,2.128-0.473,2.719-1.303c0.826-1.062,1.298-2.714,1.298-5.078c0-1.888-0.354-3.309-0.944-4.488
		c-0.354-0.826-1.062-1.416-1.77-1.77C110.909,31.716,110.079,31.716,108.899,31.716L108.899,31.716z M127.324,30.654
		c2.246,0,4.135,0.59,5.555,2.006c1.534,1.416,2.242,3.308,2.242,5.432c0,1.774-0.59,3.427-1.652,4.843
		c-1.42,1.892-3.426,2.718-6.026,2.718c-2.596,0-4.606-0.826-6.022-2.6c-1.18-1.416-1.77-3.068-1.77-4.961
		c0-2.124,0.826-3.898,2.242-5.432C123.309,31.244,125.2,30.654,127.324,30.654L127.324,30.654z M127.442,31.362
		c-1.298,0-2.36,0.708-3.068,2.006c-0.594,1.18-0.83,2.718-0.83,4.842c0,2.482,0.477,4.252,1.303,5.433
		c0.59,0.83,1.416,1.302,2.596,1.302c0.708,0,1.303-0.235,1.774-0.59c0.708-0.472,1.18-1.185,1.534-2.128
		c0.354-1.063,0.472-2.36,0.472-4.017c0-1.888-0.118-3.309-0.472-4.252c-0.354-0.944-0.826-1.652-1.416-2.006
		S128.15,31.362,127.442,31.362L127.442,31.362z M144.334,30.654c2.246,0,4.134,0.59,5.668,2.006
		c1.42,1.416,2.128,3.308,2.128,5.432c0,1.774-0.59,3.427-1.651,4.843c-1.421,1.892-3.427,2.718-6.027,2.718
		c-2.596,0-4.605-0.826-6.021-2.6c-1.181-1.416-1.656-3.068-1.656-4.961c0-2.124,0.712-3.898,2.128-5.432
		C140.436,31.244,142.21,30.654,144.334,30.654L144.334,30.654z M144.451,31.362c-1.298,0-2.359,0.708-3.071,2.006
		c-0.591,1.18-0.826,2.718-0.826,4.842c0,2.482,0.472,4.252,1.302,5.433c0.59,0.83,1.534,1.302,2.596,1.302
		c0.709,0,1.299-0.235,1.774-0.59c0.708-0.472,1.181-1.185,1.534-2.128c0.354-1.063,0.473-2.36,0.473-4.017
		c0-1.888-0.118-3.309-0.473-4.252c-0.354-0.944-0.826-1.652-1.416-2.006C145.868,31.598,145.16,31.362,144.451,31.362
		L144.451,31.362z M158.389,30.89l7.089,8.977v-6.263c0-0.826-0.118-1.416-0.354-1.77c-0.354-0.472-0.944-0.59-1.774-0.59V30.89
		h4.847v0.354c-0.594,0.118-1.066,0.118-1.302,0.236c-0.118,0.236-0.354,0.354-0.473,0.708c-0.118,0.236-0.118,0.708-0.118,1.416
		v12.049h-0.354l-9.803-12.049v9.213c0,0.826,0.118,1.42,0.59,1.774c0.354,0.235,0.826,0.354,1.298,0.354h0.354v0.473h-5.196v-0.473
		c0.826,0,1.298-0.118,1.656-0.472c0.354-0.354,0.472-0.83,0.472-1.656V32.542l-0.236-0.354c-0.354-0.354-0.594-0.59-0.83-0.708
		c-0.235-0.118-0.59-0.236-1.062-0.236V30.89H158.389z M112.798,56.871c1.298,0.236,2.364,0.708,2.836,1.181
		c0.826,0.594,1.298,1.42,1.298,2.481c0,1.063-0.472,2.011-1.416,2.719c-1.066,0.826-2.6,1.298-4.606,1.298h-7.442v-0.354
		c0.708,0,1.18-0.118,1.416-0.236s0.358-0.236,0.477-0.472c0.118-0.236,0.118-0.709,0.118-1.539v-9.448c0-0.708,0-1.18-0.118-1.416
		s-0.24-0.354-0.477-0.472c-0.236-0.118-0.708-0.236-1.416-0.236v-0.354h6.967c1.656,0,2.836,0.118,3.544,0.473
		c0.708,0.235,1.302,0.708,1.656,1.298s0.59,1.185,0.59,1.893s-0.235,1.298-0.708,1.888
		C114.922,56.045,114.096,56.518,112.798,56.871L112.798,56.871z M108.899,56.518c0.944,0,1.774-0.118,2.246-0.354
		c0.472-0.235,0.826-0.472,1.062-0.944c0.354-0.354,0.473-0.943,0.473-1.533c0-0.708-0.118-1.185-0.473-1.656
		c-0.235-0.354-0.59-0.708-1.062-0.944c-0.472-0.118-1.185-0.236-2.246-0.236V56.518z M108.899,57.344v4.724v0.477
		c0,0.354,0.118,0.708,0.236,0.826c0.235,0.235,0.472,0.354,0.825,0.354c0.591,0,1.185-0.118,1.656-0.354
		c0.473-0.236,0.826-0.591,1.063-1.185c0.236-0.472,0.354-0.944,0.354-1.534c0-0.708-0.117-1.298-0.472-1.77
		c-0.236-0.591-0.59-0.948-1.18-1.185C110.791,57.461,109.961,57.344,108.899,57.344L108.899,57.344z M118.112,50.022h7.561v0.354
		h-0.354c-0.59,0-0.944,0.118-1.18,0.236c-0.236,0.117-0.358,0.235-0.477,0.472s-0.118,0.708-0.118,1.534v7.088
		c0,1.299,0.118,2.125,0.236,2.597c0.24,0.476,0.594,0.712,0.948,1.066c0.472,0.235,1.062,0.354,1.77,0.354s1.416-0.118,2.011-0.472
		c0.472-0.354,0.944-0.83,1.18-1.42c0.354-0.708,0.473-1.771,0.473-3.305v-5.908c0-0.59-0.118-1.063-0.236-1.416
		c-0.118-0.236-0.354-0.473-0.472-0.59c-0.354-0.118-0.826-0.236-1.421-0.236v-0.354h5.083v0.354h-0.354
		c-0.358,0-0.712,0.118-1.066,0.236c-0.235,0.235-0.354,0.472-0.472,0.826c-0.118,0.117-0.236,0.59-0.236,1.18v5.555
		c0,1.651-0.117,2.95-0.354,3.658c-0.118,0.712-0.708,1.42-1.534,2.128c-0.948,0.59-2.128,0.944-3.544,0.944
		c-1.299,0-2.246-0.236-2.954-0.591c-0.944-0.354-1.652-0.943-2.007-1.651c-0.354-0.83-0.59-1.774-0.59-2.955v-7.088
		c0-0.826,0-1.298-0.118-1.534s-0.235-0.354-0.476-0.472c-0.236-0.118-0.59-0.236-1.298-0.236V50.022z M143.743,49.669l0.118,4.842
		h-0.472c-0.236-1.18-0.708-2.128-1.534-2.954c-0.83-0.708-1.656-1.062-2.601-1.062c-0.708,0-1.298,0.235-1.77,0.59
		c-0.354,0.354-0.594,0.826-0.594,1.298c0,0.358,0.117,0.595,0.239,0.948c0.236,0.236,0.473,0.59,0.944,0.944
		c0.354,0.235,1.18,0.708,2.36,1.298c1.656,0.826,2.836,1.534,3.426,2.36c0.59,0.712,0.944,1.538,0.944,2.482
		c0,1.18-0.472,2.246-1.416,3.189c-0.944,0.826-2.246,1.299-3.662,1.299c-0.473,0-0.826-0.118-1.298-0.236
		c-0.354,0-0.944-0.236-1.538-0.472c-0.354-0.118-0.591-0.236-0.826-0.236c-0.236,0-0.354,0.118-0.591,0.236
		c-0.235,0.117-0.354,0.354-0.472,0.708h-0.354v-5.551h0.354c0.236,1.534,0.826,2.714,1.771,3.544
		c0.948,0.826,1.892,1.181,2.954,1.181c0.708,0,1.416-0.236,1.892-0.59c0.473-0.473,0.708-0.944,0.708-1.539
		c0-0.354-0.117-0.708-0.354-0.943c-0.118-0.354-0.354-0.708-0.83-0.944c-0.354-0.354-0.944-0.708-1.889-1.18
		c-1.298-0.591-2.246-1.185-2.836-1.656c-0.59-0.473-1.062-0.944-1.416-1.534c-0.236-0.473-0.354-1.181-0.354-1.771
		c0-1.18,0.354-2.246,1.18-2.954c0.944-0.826,2.01-1.298,3.19-1.298c0.472,0,0.943,0.118,1.416,0.236
		c0.354,0,0.708,0.235,1.184,0.472c0.591,0.236,0.826,0.354,1.063,0.354s0.354-0.117,0.472-0.235s0.118-0.354,0.236-0.826H143.743z
		 M153.664,64.196v0.354h-7.557v-0.354h0.473c0.354,0,0.708-0.118,0.943-0.236c0.236-0.118,0.354-0.354,0.473-0.59
		c0.118-0.118,0.118-0.591,0.118-1.303v-9.566c0-0.708,0-1.18-0.118-1.416c-0.118-0.118-0.236-0.354-0.473-0.472
		c-0.235-0.118-0.59-0.236-0.943-0.236h-0.473v-0.354h7.557v0.354h-0.472c-0.472,0-0.826,0.118-1.063,0.236
		c-0.118,0.117-0.354,0.235-0.472,0.472c0,0.236-0.118,0.708-0.118,1.416v9.566c0,0.712,0.118,1.185,0.118,1.421
		c0.118,0.117,0.236,0.354,0.472,0.472c0.236,0.118,0.591,0.236,1.063,0.236H153.664z M159.572,50.022l7.203,8.977v-6.258
		c0-0.83-0.118-1.42-0.473-1.774c-0.235-0.354-0.825-0.59-1.651-0.59v-0.354h4.724v0.354c-0.59,0.118-0.943,0.236-1.18,0.354
		c-0.24,0.118-0.358,0.354-0.477,0.591c-0.117,0.235-0.235,0.826-0.235,1.42v12.163h-0.354l-9.803-12.163v9.326
		c0,0.83,0.236,1.303,0.591,1.656c0.354,0.236,0.825,0.473,1.302,0.473h0.354v0.354h-5.2v-0.354c0.83,0,1.42-0.236,1.774-0.591
		c0.236-0.235,0.472-0.826,0.472-1.538V51.793l-0.354-0.472c-0.354-0.354-0.59-0.591-0.826-0.708
		c-0.236-0.118-0.59-0.236-0.948-0.236v-0.354H159.572z M175.87,50.849v5.904h0.354c0.948,0,1.538-0.235,2.011-0.825
		c0.354-0.591,0.59-1.417,0.708-2.597h0.472v7.557h-0.472c0-0.826-0.236-1.416-0.473-2.006c-0.354-0.473-0.59-0.83-0.943-1.066
		c-0.354-0.118-0.948-0.236-1.656-0.236v4.017c0,0.826,0.118,1.302,0.118,1.538c0.117,0.118,0.235,0.354,0.354,0.472
		c0.236,0,0.477,0.118,0.948,0.118h0.826c1.416,0,2.478-0.354,3.308-0.944c0.826-0.594,1.416-1.538,1.771-2.836h0.354l-0.59,4.606
		h-12.521v-0.354h0.472c0.354,0,0.708-0.118,0.944-0.236s0.354-0.354,0.472-0.59c0-0.118,0.122-0.591,0.122-1.303v-9.566
		c0-0.708,0-1.062-0.122-1.18c0-0.354-0.118-0.473-0.354-0.591c-0.236-0.235-0.59-0.354-1.063-0.354h-0.472v-0.354h12.049v4.253
		h-0.354c-0.235-1.063-0.472-1.774-0.943-2.246c-0.358-0.473-0.83-0.708-1.538-0.944c-0.354-0.118-1.181-0.236-2.242-0.236H175.87z
		 M194.889,49.669v4.842h-0.354c-0.24-1.18-0.712-2.128-1.538-2.954c-0.826-0.708-1.652-1.062-2.597-1.062
		c-0.83,0-1.302,0.235-1.773,0.59c-0.473,0.354-0.591,0.826-0.591,1.298c0,0.358,0,0.595,0.118,0.948
		c0.236,0.236,0.591,0.59,1.063,0.944c0.354,0.235,1.066,0.708,2.364,1.298c1.652,0.826,2.832,1.534,3.426,2.36
		c0.59,0.712,0.826,1.538,0.826,2.482c0,1.18-0.472,2.246-1.42,3.189c-0.944,0.826-2.124,1.299-3.54,1.299
		c-0.473,0-0.948-0.118-1.303-0.236c-0.472,0-0.943-0.236-1.534-0.472c-0.354-0.118-0.708-0.236-0.943-0.236
		c-0.118,0-0.354,0.118-0.473,0.236c-0.235,0.117-0.472,0.354-0.59,0.708h-0.354v-5.551h0.354c0.354,1.534,0.944,2.714,1.889,3.544
		c0.826,0.826,1.77,1.181,2.836,1.181c0.826,0,1.416-0.236,1.888-0.59c0.473-0.473,0.708-0.944,0.708-1.539
		c0-0.354,0-0.708-0.235-0.943c-0.236-0.354-0.473-0.708-0.826-0.944c-0.354-0.354-1.063-0.708-2.006-1.18
		c-1.303-0.591-2.247-1.185-2.837-1.656c-0.59-0.473-0.943-0.944-1.298-1.534c-0.354-0.473-0.472-1.181-0.472-1.771
		c0-1.18,0.472-2.246,1.298-2.954c0.826-0.826,1.888-1.298,3.19-1.298c0.472,0,0.943,0.118,1.416,0.236
		c0.235,0,0.708,0.235,1.18,0.472c0.473,0.236,0.826,0.354,1.063,0.354c0.118,0,0.235-0.117,0.354-0.235s0.236-0.354,0.358-0.826
		H194.889z M207.052,49.669l0.118,4.842h-0.472c-0.236-1.18-0.708-2.128-1.534-2.954c-0.826-0.708-1.652-1.062-2.601-1.062
		c-0.826,0-1.298,0.235-1.77,0.59c-0.473,0.354-0.591,0.826-0.591,1.298c0,0.358,0,0.595,0.236,0.948
		c0.118,0.236,0.472,0.59,0.944,0.944c0.354,0.235,1.062,0.708,2.364,1.298c1.651,0.826,2.832,1.534,3.422,2.36
		c0.594,0.712,0.83,1.538,0.83,2.482c0,1.18-0.477,2.246-1.42,3.189c-0.944,0.826-2.124,1.299-3.545,1.299
		c-0.472,0-0.943-0.118-1.298-0.236c-0.472,0-0.943-0.236-1.534-0.472c-0.354-0.118-0.708-0.236-0.826-0.236
		c-0.235,0-0.472,0.118-0.594,0.236c-0.236,0.117-0.472,0.354-0.59,0.708h-0.354v-5.551h0.354c0.354,1.534,0.948,2.714,1.892,3.544
		c0.826,0.826,1.771,1.181,2.833,1.181c0.83,0,1.42-0.236,1.892-0.59c0.473-0.473,0.708-0.944,0.708-1.539
		c0-0.354,0-0.708-0.235-0.943c-0.118-0.354-0.473-0.708-0.826-0.944c-0.354-0.354-1.063-0.708-2.011-1.18
		c-1.298-0.591-2.242-1.185-2.832-1.656c-0.59-0.473-0.948-0.944-1.302-1.534c-0.354-0.473-0.473-1.181-0.473-1.771
		c0-1.18,0.473-2.246,1.303-2.954c0.826-0.826,1.888-1.298,3.186-1.298c0.473,0,0.948,0.118,1.421,0.236
		c0.235,0,0.708,0.235,1.18,0.472s0.826,0.354,1.063,0.354c0.117,0,0.235-0.117,0.354-0.235s0.236-0.354,0.354-0.826H207.052z
		 M113.388,68.802l0.118,4.843h-0.473c-0.235-1.18-0.708-2.124-1.534-2.836c-0.825-0.826-1.655-1.181-2.6-1.181
		c-0.826,0-1.298,0.236-1.771,0.59c-0.472,0.473-0.59,0.826-0.59,1.421c0,0.235,0,0.59,0.236,0.826
		c0.118,0.354,0.472,0.59,0.943,0.943c0.354,0.236,1.063,0.708,2.36,1.298c1.656,0.826,2.837,1.656,3.427,2.364
		s0.826,1.534,0.826,2.479c0,1.302-0.473,2.246-1.416,3.19c-0.944,0.826-2.125,1.298-3.545,1.298c-0.472,0-0.943-0.118-1.298-0.118
		c-0.472-0.118-0.944-0.354-1.534-0.59c-0.354-0.118-0.712-0.236-0.83-0.236c-0.231,0-0.468,0.118-0.59,0.236
		c-0.236,0.236-0.473,0.354-0.59,0.708h-0.354v-5.433h0.354c0.354,1.534,0.948,2.601,1.892,3.427
		c0.826,0.826,1.771,1.298,2.832,1.298c0.826,0,1.421-0.236,1.893-0.708s0.708-0.944,0.708-1.534c0-0.354,0-0.59-0.236-0.948
		c-0.118-0.354-0.472-0.59-0.826-0.944c-0.357-0.235-1.065-0.708-2.01-1.062c-1.298-0.708-2.242-1.298-2.836-1.771
		c-0.586-0.354-0.944-0.948-1.299-1.42c-0.354-0.59-0.472-1.18-0.472-1.888c0-1.181,0.472-2.129,1.303-2.954
		c0.825-0.826,1.888-1.299,3.186-1.299c0.473,0,0.944,0.118,1.416,0.236c0.354,0.118,0.712,0.236,1.185,0.472
		c0.472,0.236,0.826,0.354,1.062,0.354c0.118,0,0.236-0.118,0.354-0.236s0.236-0.354,0.354-0.826H113.388z M129.807,68.802v5.079
		h-0.354c-0.354-1.299-0.944-2.36-1.774-3.072c-0.826-0.708-1.889-1.063-2.95-1.063c-0.826,0-1.656,0.354-2.482,0.826
		c-0.708,0.472-1.298,1.184-1.652,2.01c-0.472,1.181-0.59,2.36-0.59,3.663c0,1.298,0.118,2.478,0.473,3.54
		c0.354,1.065,0.825,1.892,1.533,2.364c0.708,0.59,1.534,0.825,2.719,0.825c0.826,0,1.652-0.117,2.478-0.59
		c0.708-0.354,1.539-1.062,2.364-2.006v1.18c-0.825,0.944-1.656,1.534-2.481,1.889c-0.944,0.354-1.889,0.59-3.068,0.59
		c-1.538,0-2.954-0.354-4.135-0.944c-1.184-0.59-2.128-1.534-2.836-2.714c-0.59-1.066-0.944-2.364-0.944-3.662
		c0-1.42,0.354-2.719,1.063-3.898c0.708-1.298,1.77-2.246,2.954-2.954c1.18-0.708,2.479-1.063,3.898-1.063
		c1.062,0,2.124,0.236,3.186,0.708c0.708,0.236,1.066,0.354,1.303,0.354s0.354,0,0.59-0.236c0.118-0.118,0.236-0.354,0.354-0.826
		H129.807z M137.009,76.717v4.488c0,0.708,0,1.18,0.122,1.416c0.118,0.236,0.236,0.354,0.473,0.472
		c0.235,0.118,0.59,0.236,0.943,0.236h0.473v0.354h-7.561v-0.354h0.472c0.472,0,0.83-0.118,1.066-0.236
		c0.118-0.118,0.354-0.235,0.472-0.472c0-0.236,0.118-0.708,0.118-1.416v-9.566c0-0.713-0.118-1.185-0.118-1.421
		c-0.118-0.117-0.235-0.354-0.472-0.472s-0.595-0.236-1.066-0.236h-0.472v-0.354h7.561v0.354h-0.473
		c-0.354,0-0.708,0.118-0.943,0.236c-0.236,0.118-0.354,0.354-0.473,0.59c-0.122,0.118-0.122,0.59-0.122,1.303v4.13h5.201v-4.13
		c0-0.713-0.118-1.185-0.118-1.421c-0.118-0.117-0.236-0.354-0.595-0.472c-0.235-0.118-0.472-0.236-0.943-0.236h-0.473v-0.354h7.561
		v0.354h-0.472c-0.354,0-0.708,0.118-0.944,0.236c-0.235,0.118-0.357,0.354-0.476,0.59c-0.118,0.118-0.118,0.59-0.118,1.303v9.566
		c0,0.708,0,1.18,0.118,1.416s0.24,0.354,0.476,0.472c0.236,0.118,0.59,0.236,0.944,0.236h0.472v0.354h-7.561v-0.354h0.473
		c0.472,0,0.826-0.118,1.065-0.236c0.118-0.118,0.354-0.235,0.473-0.472c0-0.236,0.118-0.708,0.118-1.416v-4.488H137.009z
		 M156.5,69.038c2.36-0.118,4.135,0.59,5.669,2.006c1.416,1.421,2.128,3.19,2.128,5.318c0,1.889-0.59,3.541-1.656,4.843
		c-1.416,1.888-3.422,2.832-6.022,2.832c-2.6,0-4.606-0.944-6.022-2.714c-1.184-1.303-1.655-2.954-1.655-4.961
		c0-2.128,0.708-3.897,2.128-5.318C152.603,69.628,154.372,68.92,156.5,69.038L156.5,69.038z M156.618,69.746
		c-1.298,0-2.364,0.59-3.072,2.01c-0.472,1.063-0.825,2.715-0.825,4.725c0,2.479,0.472,4.37,1.298,5.551
		c0.59,0.826,1.538,1.18,2.6,1.18c0.708,0,1.299-0.118,1.889-0.472c0.59-0.473,1.065-1.298,1.42-2.242
		c0.354-0.948,0.472-2.364,0.472-3.898c0-1.893-0.117-3.309-0.472-4.252c-0.354-1.066-0.83-1.656-1.42-2.129
		C158.034,69.864,157.326,69.746,156.618,69.746L156.618,69.746z M173.51,69.038c2.36-0.118,4.252,0.59,5.668,2.006
		c1.416,1.421,2.129,3.19,2.129,5.318c0,1.889-0.477,3.541-1.656,4.843c-1.416,1.888-3.427,2.832-6.022,2.832
		c-2.601,0-4.606-0.944-6.026-2.714c-1.181-1.303-1.652-2.954-1.652-4.961c0-2.128,0.708-3.897,2.128-5.318
		C169.611,69.628,171.382,68.92,173.51,69.038L173.51,69.038z M173.628,69.746c-1.303,0-2.364,0.59-3.072,2.01
		c-0.473,1.063-0.826,2.715-0.826,4.725c0,2.479,0.472,4.37,1.298,5.551c0.708,0.826,1.538,1.18,2.601,1.18
		c0.708,0,1.298-0.118,1.888-0.472c0.59-0.473,1.063-1.298,1.42-2.242c0.354-0.948,0.591-2.364,0.591-3.898
		c0-1.893-0.236-3.309-0.591-4.252c-0.357-1.066-0.83-1.656-1.42-2.129C175.044,69.864,174.336,69.746,173.628,69.746
		L173.628,69.746z M195.951,78.604l-0.59,5.079h-12.875v-0.354h0.59c0.354,0,0.708-0.118,0.944-0.236
		c0.235-0.118,0.354-0.235,0.472-0.472c0-0.236,0.118-0.708,0.118-1.416v-9.566c0-0.713-0.118-1.185-0.118-1.421
		c-0.118-0.117-0.236-0.354-0.472-0.472c-0.236-0.118-0.59-0.236-0.944-0.236h-0.59v-0.354h7.797v0.354h-0.595
		c-0.472,0-0.826,0.118-1.062,0.236c-0.236,0.118-0.354,0.354-0.473,0.59c0,0.118-0.118,0.59-0.118,1.303v9.33
		c0,0.708,0.118,1.181,0.118,1.416c0.118,0.118,0.236,0.354,0.473,0.354c0.235,0.118,0.708,0.118,1.298,0.118h1.302
		c0.708,0,1.299-0.118,1.889-0.354c0.472-0.236,0.943-0.708,1.298-1.298c0.358-0.59,0.712-1.42,1.066-2.601H195.951z
		 M118.112,88.054v5.078h-0.354c-0.472-1.416-1.18-2.479-2.124-3.187c-0.948-0.708-2.01-1.065-3.19-1.065
		c-1.062,0-1.892,0.357-2.6,0.947c-0.826,0.591-1.299,1.416-1.534,2.479c-0.354,1.063-0.473,2.246-0.473,3.427
		c0,1.298,0.118,2.6,0.473,3.662c0.354,0.943,0.826,1.77,1.534,2.242c0.708,0.472,1.655,0.712,2.6,0.712
		c0.354,0,0.708,0,1.063-0.122c0.472,0,0.826-0.118,1.18-0.236v-3.068c0-0.59,0-0.943-0.118-1.062
		c-0.118-0.24-0.235-0.358-0.472-0.477s-0.59-0.235-0.944-0.235h-0.354v-0.354h7.088v0.354c-0.594,0-0.948,0.117-1.184,0.235
		c-0.118,0.118-0.354,0.236-0.473,0.595c0,0.117-0.117,0.472-0.117,0.943v3.068c-0.826,0.358-1.889,0.712-2.833,0.83
		c-1.065,0.236-2.01,0.354-3.072,0.354c-1.416,0-2.6-0.118-3.426-0.591c-0.944-0.357-1.771-0.83-2.479-1.42
		s-1.184-1.298-1.656-2.124c-0.472-0.944-0.707-2.01-0.707-3.19c0-2.242,0.825-4.016,2.363-5.55
		c1.534-1.538,3.423-2.246,5.787-2.246c0.708,0,1.298,0,1.888,0.118c0.354,0.117,0.826,0.235,1.538,0.472
		c0.708,0.358,1.063,0.476,1.298,0.476c0.118,0,0.354-0.117,0.473-0.239c0.235-0.118,0.354-0.473,0.472-0.826H118.112z
		 M125.908,96.204v4.134c0,0.826,0,1.299,0.118,1.534c0.118,0.118,0.236,0.354,0.472,0.477c0.354,0.118,0.708,0.118,1.416,0.118
		v0.354h-7.438v-0.354c0.708,0,1.18,0,1.416-0.118c0.235-0.122,0.354-0.358,0.472-0.477c0.118-0.235,0.118-0.708,0.118-1.534V90.89
		c0-0.826,0-1.298-0.118-1.534c-0.118-0.118-0.236-0.354-0.472-0.476c-0.236-0.118-0.708-0.118-1.416-0.118v-0.354h6.729
		c1.774,0,3.072,0.118,3.898,0.354c0.826,0.24,1.416,0.594,2.011,1.302c0.472,0.708,0.708,1.416,0.708,2.242
		c0,1.063-0.354,2.01-1.181,2.718c-0.476,0.473-1.184,0.709-2.01,0.944l3.426,4.961c0.473,0.59,0.826,1.062,1.063,1.18
		c0.236,0.24,0.59,0.358,0.944,0.358v0.354h-4.488l-4.725-6.616H125.908z M125.908,89.119v6.377h0.59
		c1.063,0,1.774-0.118,2.247-0.236c0.472-0.236,0.825-0.59,1.18-1.062c0.236-0.473,0.354-1.066,0.354-1.774
		c0-1.181-0.235-2.006-0.708-2.479c-0.59-0.472-1.42-0.826-2.481-0.826H125.908z M144.334,88.172c2.246-0.118,4.134,0.59,5.668,2.01
		c1.42,1.416,2.128,3.187,2.128,5.433c0,1.77-0.59,3.426-1.651,4.842c-1.421,1.771-3.427,2.719-6.027,2.719
		c-2.596,0-4.605-0.826-6.021-2.601c-1.181-1.416-1.656-3.072-1.656-4.96c0-2.246,0.712-4.017,2.128-5.433
		C140.436,88.762,142.21,88.054,144.334,88.172L144.334,88.172z M144.451,88.88c-1.298,0-2.359,0.594-3.071,2.01
		c-0.591,1.063-0.826,2.718-0.826,4.725c0,2.481,0.472,4.37,1.302,5.55c0.59,0.826,1.534,1.185,2.596,1.185
		c0.709,0,1.299-0.122,1.774-0.477c0.708-0.472,1.181-1.18,1.534-2.242c0.354-0.943,0.473-2.246,0.473-3.897
		c0-1.889-0.118-3.309-0.473-4.253c-0.354-0.944-0.826-1.652-1.416-2.006C145.868,89.002,145.16,88.88,144.451,88.88L144.451,88.88z
		 M153.429,88.407h7.442v0.354h-0.354c-0.59,0-0.944,0-1.18,0.118c-0.24,0.122-0.358,0.357-0.477,0.476
		c0,0.236-0.118,0.708-0.118,1.652v7.088c0,1.299,0.118,2.125,0.354,2.479c0.122,0.472,0.476,0.826,0.948,1.063
		c0.472,0.354,1.062,0.472,1.652,0.472c0.825,0,1.533-0.236,2.01-0.59c0.59-0.354,0.944-0.826,1.298-1.416
		c0.236-0.591,0.354-1.652,0.354-3.19v-5.904c0-0.708,0-1.181-0.236-1.416c-0.118-0.354-0.236-0.473-0.472-0.59
		c-0.354-0.24-0.708-0.24-1.303-0.24v-0.354h4.965v0.354h-0.358c-0.354,0-0.708,0-0.944,0.24c-0.235,0.117-0.472,0.354-0.59,0.708
		c-0.118,0.235-0.118,0.59-0.118,1.298v5.433c0,1.773-0.117,2.954-0.354,3.662c-0.236,0.826-0.826,1.534-1.652,2.124
		c-0.83,0.594-2.01,0.948-3.544,0.948c-1.298,0-2.246-0.118-2.954-0.473c-0.826-0.476-1.534-1.065-1.889-1.773
		c-0.472-0.708-0.59-1.652-0.59-2.833v-7.088c0-0.944-0.118-1.416-0.118-1.652c-0.118-0.118-0.354-0.354-0.472-0.476
		c-0.24-0.118-0.712-0.118-1.302-0.118V88.407z"/>
	<path fill="#FF0000" d="M174.571,96.322v4.016c0,0.826,0.118,1.299,0.236,1.416c0,0.236,0.236,0.473,0.472,0.595
		c0.236,0.118,0.709,0.118,1.299,0.118v0.354h-7.32v-0.354c0.708,0,1.18,0,1.416-0.118c0.235-0.122,0.354-0.358,0.472-0.595
		c0.118-0.117,0.118-0.59,0.118-1.416V90.89c0-0.826,0-1.298-0.118-1.534c-0.118-0.118-0.236-0.354-0.472-0.476
		c-0.354-0.118-0.708-0.118-1.416-0.118v-0.354h6.376c2.01,0,3.544,0.354,4.488,1.066c0.826,0.708,1.302,1.652,1.302,2.714
		c0,0.944-0.235,1.774-0.83,2.482c-0.59,0.708-1.416,1.18-2.478,1.416C177.408,96.204,176.224,96.322,174.571,96.322L174.571,96.322
		z M174.571,89.237v6.259c0.236,0,0.473,0,0.591,0c0.826,0,1.534-0.236,2.01-0.826c0.472-0.472,0.708-1.302,0.708-2.364
		s-0.236-1.888-0.708-2.36c-0.476-0.472-1.184-0.708-2.128-0.708H174.571z"/>
</g>
</svg>
